<?xml version="1.0" standalone="no"?>
<!DOCTYPE svg PUBLIC "-//W3C//DTD SVG 20001102//EN" "http://www.w3.org/TR/2000/CR-SVG-20001102/DTD/svg-20001102.dtd">
<svg xmlns="http://www.w3.org/2000/svg" width="1727" x="0" y="0" height="809" id="/store/sources/bijutsukan/bijutsukan/developer/class diagram" >
 <rect width="1727" x="25" y="101" height="809" transform="translate(-25,-101)" style="stroke:rgb(0,0,0);stroke-width:0;fill:rgb(255,255,255);" />
 <line transform="translate(-25,-101)" style="stroke:rgb(255,0,0);stroke-width:0.9;fill:none;" y1="310" y2="310" x1="809" x2="956" />
 <line transform="translate(-25,-101)" style="stroke:rgb(255,0,0);stroke-width:0.9;fill:none;" y1="400" y2="542" x1="809" x2="1060" />
 <line transform="translate(-25,-101)" style="stroke:rgb(255,0,0);stroke-width:0.9;fill:none;" y1="159" y2="215" x1="640" x2="640" />
 <line transform="translate(-25,-101)" style="stroke:rgb(255,0,0);stroke-width:0.9;fill:none;" y1="340" y2="431" x1="1630" x2="1630" />
 <line transform="translate(-25,-101)" style="stroke:rgb(255,0,0);stroke-width:0.9;fill:none;" y1="542" y2="340" x1="1100" x2="1370" />
 <line transform="translate(-25,-101)" style="stroke:rgb(255,0,0);stroke-width:0.9;fill:none;" y1="609" y2="716" x1="620" x2="630" />
 <line transform="translate(-25,-101)" style="stroke:rgb(255,0,0);stroke-width:0.9;fill:none;" y1="570" y2="540" x1="1013" x2="813" />
 <line transform="translate(-25,-101)" style="stroke:rgb(255,0,0);stroke-width:0.9;fill:none;" y1="650" y2="580" x1="1007" x2="813" />
 <line transform="translate(-25,-101)" style="stroke:rgb(255,0,0);stroke-width:0.9;fill:none;" y1="609" y2="716" x1="590" x2="520" />
 <line transform="translate(-25,-101)" style="stroke:rgb(255,0,0);stroke-width:0.9;fill:none;" y1="622" y2="340" x1="1090" x2="1420" />
 <line transform="translate(-25,-101)" style="stroke:rgb(255,0,0);stroke-width:0.9;fill:none;" y1="702" y2="609" x1="1060" x2="780" />
 <line transform="translate(-25,-101)" style="stroke:rgb(255,0,0);stroke-width:0.9;fill:none;" y1="772" y2="609" x1="1060" x2="740" />
 <line transform="translate(-25,-101)" style="stroke:rgb(255,0,0);stroke-width:0.9;fill:none;" y1="846" y2="609" x1="1060" x2="700" />
 <line transform="translate(-25,-101)" style="stroke:rgb(255,0,0);stroke-width:0.9;fill:none;" y1="702" y2="340" x1="1120" x2="1480" />
 <line transform="translate(-25,-101)" style="stroke:rgb(255,0,0);stroke-width:0.9;fill:none;" y1="772" y2="340" x1="1120" x2="1530" />
 <line transform="translate(-25,-101)" style="stroke:rgb(255,0,0);stroke-width:0.9;fill:none;" y1="846" y2="340" x1="1120" x2="1580" />
 <line transform="translate(-25,-101)" style="stroke:rgb(255,0,0);stroke-width:0.9;fill:none;" y1="609" y2="716" x1="660" x2="760" />
 <line transform="translate(-25,-101)" style="stroke:rgb(255,0,0);stroke-width:0.9;fill:none;" y1="794" y2="744" x1="680" x2="760" />
 <line transform="translate(-25,-101)" style="stroke:rgb(255,0,0);stroke-width:0.9;fill:none;" y1="794" y2="744" x1="600" x2="500" />
 <line transform="translate(-25,-101)" style="stroke:rgb(255,0,0);stroke-width:0.9;fill:none;" y1="716" y2="596" x1="490" x2="230" />
 <polygon points="809 310 819 314 831 310 819 306" transform="translate(-25,-101)" style="stroke:rgb(0,0,0);stroke-width:0;fill:rgb(255,255,255);" />
 <polygon points="809 400 816 409 828 411 820 401" transform="translate(-25,-101)" style="stroke:rgb(0,0,0);stroke-width:0;fill:rgb(255,255,255);" />
 <polygon points="640 159 636 169 640 181 644 169" transform="translate(-25,-101)" style="stroke:rgb(0,0,0);stroke-width:0;fill:rgb(255,0,0);" />
 <polygon points="1630 340 1626 350 1630 362 1634 350" transform="translate(-25,-101)" style="stroke:rgb(0,0,0);stroke-width:0;fill:rgb(255,0,0);" />
 <polygon points="1090 622 1100 619 1107 608 1095 612" transform="translate(-25,-101)" style="stroke:rgb(0,0,0);stroke-width:0;fill:rgb(255,0,0);" />
 <polygon points="1100 542 1111 539 1118 529 1106 533" transform="translate(-25,-101)" style="stroke:rgb(0,0,0);stroke-width:0;fill:rgb(255,0,0);" />
 <polygon points="630 716 635 704 622 705 630 716" transform="translate(-25,-101)" style="stroke:rgb(0,0,0);stroke-width:0;fill:rgb(255,255,255);" />
 <polygon points="813 540 823 548 825 535 813 540" transform="translate(-25,-101)" style="stroke:rgb(0,0,0);stroke-width:0;fill:rgb(255,255,255);" />
 <polygon points="813 580 821 590 826 578 813 580" transform="translate(-25,-101)" style="stroke:rgb(0,0,0);stroke-width:0;fill:rgb(255,255,255);" />
 <polygon points="520 716 532 710 521 703 520 716" transform="translate(-25,-101)" style="stroke:rgb(0,0,0);stroke-width:0;fill:rgb(255,255,255);" />
 <polygon points="780 609 789 619 793 606 780 609" transform="translate(-25,-101)" style="stroke:rgb(0,0,0);stroke-width:0;fill:rgb(255,255,255);" />
 <polygon points="740 609 747 620 753 608 740 609" transform="translate(-25,-101)" style="stroke:rgb(0,0,0);stroke-width:0;fill:rgb(255,255,255);" />
 <polygon points="700 609 706 621 713 610 700 609" transform="translate(-25,-101)" style="stroke:rgb(0,0,0);stroke-width:0;fill:rgb(255,255,255);" />
 <polygon points="1120 702 1130 698 1136 686 1124 692" transform="translate(-25,-101)" style="stroke:rgb(0,0,0);stroke-width:0;fill:rgb(255,0,0);" />
 <polygon points="1120 772 1130 768 1135 756 1124 762" transform="translate(-25,-101)" style="stroke:rgb(0,0,0);stroke-width:0;fill:rgb(255,0,0);" />
 <polygon points="1120 846 1130 841 1135 830 1124 836" transform="translate(-25,-101)" style="stroke:rgb(0,0,0);stroke-width:0;fill:rgb(255,0,0);" />
 <polygon points="760 744 747 744 754 755 760 744" transform="translate(-25,-101)" style="stroke:rgb(0,0,0);stroke-width:0;fill:rgb(255,255,255);" />
 <polygon points="500 744 507 755 513 743 500 744" transform="translate(-25,-101)" style="stroke:rgb(0,0,0);stroke-width:0;fill:rgb(255,255,255);" />
 <polygon points="490 716 483 708 470 707 479 716" transform="translate(-25,-101)" style="stroke:rgb(0,0,0);stroke-width:0;fill:rgb(255,0,0);" />
 <line transform="translate(-25,-101)" style="stroke:rgb(255,0,0);stroke-width:0.9;fill:none;" y1="310" y2="314" x1="809" x2="819" />
 <line transform="translate(-25,-101)" style="stroke:rgb(255,0,0);stroke-width:0.9;fill:none;" y1="310" y2="306" x1="831" x2="819" />
 <line transform="translate(-25,-101)" style="stroke:rgb(255,0,0);stroke-width:0.9;fill:none;" y1="314" y2="310" x1="819" x2="831" />
 <line transform="translate(-25,-101)" style="stroke:rgb(255,0,0);stroke-width:0.9;fill:none;" y1="306" y2="310" x1="819" x2="809" />
 <line transform="translate(-25,-101)" style="stroke:rgb(255,0,0);stroke-width:0.9;fill:none;" y1="400" y2="409" x1="809" x2="816" />
 <line transform="translate(-25,-101)" style="stroke:rgb(255,0,0);stroke-width:0.9;fill:none;" y1="411" y2="401" x1="828" x2="820" />
 <line transform="translate(-25,-101)" style="stroke:rgb(255,0,0);stroke-width:0.9;fill:none;" y1="409" y2="411" x1="816" x2="828" />
 <line transform="translate(-25,-101)" style="stroke:rgb(255,0,0);stroke-width:0.9;fill:none;" y1="401" y2="400" x1="820" x2="809" />
 <line transform="translate(-25,-101)" style="stroke:rgb(255,0,0);stroke-width:0.9;fill:none;" y1="159" y2="169" x1="640" x2="636" />
 <line transform="translate(-25,-101)" style="stroke:rgb(255,0,0);stroke-width:0.9;fill:none;" y1="181" y2="169" x1="640" x2="644" />
 <line transform="translate(-25,-101)" style="stroke:rgb(255,0,0);stroke-width:0.9;fill:none;" y1="169" y2="181" x1="636" x2="640" />
 <line transform="translate(-25,-101)" style="stroke:rgb(255,0,0);stroke-width:0.9;fill:none;" y1="169" y2="159" x1="644" x2="640" />
 <line transform="translate(-25,-101)" style="stroke:rgb(255,0,0);stroke-width:0.9;fill:none;" y1="340" y2="350" x1="1630" x2="1626" />
 <line transform="translate(-25,-101)" style="stroke:rgb(255,0,0);stroke-width:0.9;fill:none;" y1="362" y2="350" x1="1630" x2="1634" />
 <line transform="translate(-25,-101)" style="stroke:rgb(255,0,0);stroke-width:0.9;fill:none;" y1="350" y2="362" x1="1626" x2="1630" />
 <line transform="translate(-25,-101)" style="stroke:rgb(255,0,0);stroke-width:0.9;fill:none;" y1="350" y2="340" x1="1634" x2="1630" />
 <line transform="translate(-25,-101)" style="stroke:rgb(255,0,0);stroke-width:0.9;fill:none;" y1="622" y2="619" x1="1090" x2="1100" />
 <line transform="translate(-25,-101)" style="stroke:rgb(255,0,0);stroke-width:0.9;fill:none;" y1="608" y2="612" x1="1107" x2="1095" />
 <line transform="translate(-25,-101)" style="stroke:rgb(255,0,0);stroke-width:0.9;fill:none;" y1="619" y2="608" x1="1100" x2="1107" />
 <line transform="translate(-25,-101)" style="stroke:rgb(255,0,0);stroke-width:0.9;fill:none;" y1="542" y2="539" x1="1100" x2="1111" />
 <line transform="translate(-25,-101)" style="stroke:rgb(255,0,0);stroke-width:0.9;fill:none;" y1="529" y2="533" x1="1118" x2="1106" />
 <line transform="translate(-25,-101)" style="stroke:rgb(255,0,0);stroke-width:0.9;fill:none;" y1="539" y2="529" x1="1111" x2="1118" />
 <line transform="translate(-25,-101)" style="stroke:rgb(255,0,0);stroke-width:0.9;fill:none;" y1="533" y2="542" x1="1106" x2="1100" />
 <line transform="translate(-25,-101)" style="stroke:rgb(255,0,0);stroke-width:0.9;fill:none;" y1="716" y2="704" x1="630" x2="635" />
 <line transform="translate(-25,-101)" style="stroke:rgb(255,0,0);stroke-width:0.9;fill:none;" y1="704" y2="705" x1="635" x2="622" />
 <line transform="translate(-25,-101)" style="stroke:rgb(255,0,0);stroke-width:0.9;fill:none;" y1="716" y2="705" x1="630" x2="622" />
 <line transform="translate(-25,-101)" style="stroke:rgb(255,0,0);stroke-width:0.9;fill:none;" y1="540" y2="548" x1="813" x2="823" />
 <line transform="translate(-25,-101)" style="stroke:rgb(255,0,0);stroke-width:0.9;fill:none;" y1="548" y2="535" x1="823" x2="825" />
 <line transform="translate(-25,-101)" style="stroke:rgb(255,0,0);stroke-width:0.9;fill:none;" y1="540" y2="535" x1="813" x2="825" />
 <line transform="translate(-25,-101)" style="stroke:rgb(255,0,0);stroke-width:0.9;fill:none;" y1="612" y2="622" x1="1095" x2="1090" />
 <line transform="translate(-25,-101)" style="stroke:rgb(255,0,0);stroke-width:0.9;fill:none;" y1="580" y2="590" x1="813" x2="821" />
 <line transform="translate(-25,-101)" style="stroke:rgb(255,0,0);stroke-width:0.9;fill:none;" y1="590" y2="578" x1="821" x2="826" />
 <line transform="translate(-25,-101)" style="stroke:rgb(255,0,0);stroke-width:0.9;fill:none;" y1="580" y2="578" x1="813" x2="826" />
 <line transform="translate(-25,-101)" style="stroke:rgb(255,0,0);stroke-width:0.9;fill:none;" y1="710" y2="703" x1="532" x2="521" />
 <line transform="translate(-25,-101)" style="stroke:rgb(255,0,0);stroke-width:0.9;fill:none;" y1="716" y2="703" x1="520" x2="521" />
 <line transform="translate(-25,-101)" style="stroke:rgb(255,0,0);stroke-width:0.9;fill:none;" y1="716" y2="710" x1="520" x2="532" />
 <line transform="translate(-25,-101)" style="stroke:rgb(255,0,0);stroke-width:0.9;fill:none;" y1="609" y2="619" x1="780" x2="789" />
 <line transform="translate(-25,-101)" style="stroke:rgb(255,0,0);stroke-width:0.9;fill:none;" y1="619" y2="606" x1="789" x2="793" />
 <line transform="translate(-25,-101)" style="stroke:rgb(255,0,0);stroke-width:0.9;fill:none;" y1="609" y2="606" x1="780" x2="793" />
 <line transform="translate(-25,-101)" style="stroke:rgb(255,0,0);stroke-width:0.9;fill:none;" y1="609" y2="620" x1="740" x2="747" />
 <line transform="translate(-25,-101)" style="stroke:rgb(255,0,0);stroke-width:0.9;fill:none;" y1="620" y2="608" x1="747" x2="753" />
 <line transform="translate(-25,-101)" style="stroke:rgb(255,0,0);stroke-width:0.9;fill:none;" y1="609" y2="608" x1="740" x2="753" />
 <line transform="translate(-25,-101)" style="stroke:rgb(255,0,0);stroke-width:0.9;fill:none;" y1="609" y2="621" x1="700" x2="706" />
 <line transform="translate(-25,-101)" style="stroke:rgb(255,0,0);stroke-width:0.9;fill:none;" y1="621" y2="610" x1="706" x2="713" />
 <line transform="translate(-25,-101)" style="stroke:rgb(255,0,0);stroke-width:0.9;fill:none;" y1="609" y2="610" x1="700" x2="713" />
 <line transform="translate(-25,-101)" style="stroke:rgb(255,0,0);stroke-width:0.9;fill:none;" y1="702" y2="698" x1="1120" x2="1130" />
 <line transform="translate(-25,-101)" style="stroke:rgb(255,0,0);stroke-width:0.9;fill:none;" y1="686" y2="692" x1="1136" x2="1124" />
 <line transform="translate(-25,-101)" style="stroke:rgb(255,0,0);stroke-width:0.9;fill:none;" y1="698" y2="686" x1="1130" x2="1136" />
 <line transform="translate(-25,-101)" style="stroke:rgb(255,0,0);stroke-width:0.9;fill:none;" y1="692" y2="702" x1="1124" x2="1120" />
 <line transform="translate(-25,-101)" style="stroke:rgb(255,0,0);stroke-width:0.9;fill:none;" y1="772" y2="768" x1="1120" x2="1130" />
 <line transform="translate(-25,-101)" style="stroke:rgb(255,0,0);stroke-width:0.9;fill:none;" y1="756" y2="762" x1="1135" x2="1124" />
 <line transform="translate(-25,-101)" style="stroke:rgb(255,0,0);stroke-width:0.9;fill:none;" y1="768" y2="756" x1="1130" x2="1135" />
 <line transform="translate(-25,-101)" style="stroke:rgb(255,0,0);stroke-width:0.9;fill:none;" y1="762" y2="772" x1="1124" x2="1120" />
 <line transform="translate(-25,-101)" style="stroke:rgb(255,0,0);stroke-width:0.9;fill:none;" y1="846" y2="841" x1="1120" x2="1130" />
 <line transform="translate(-25,-101)" style="stroke:rgb(255,0,0);stroke-width:0.9;fill:none;" y1="830" y2="836" x1="1135" x2="1124" />
 <line transform="translate(-25,-101)" style="stroke:rgb(255,0,0);stroke-width:0.9;fill:none;" y1="841" y2="830" x1="1130" x2="1135" />
 <line transform="translate(-25,-101)" style="stroke:rgb(255,0,0);stroke-width:0.9;fill:none;" y1="836" y2="846" x1="1124" x2="1120" />
 <line transform="translate(-25,-101)" style="stroke:rgb(255,0,0);stroke-width:0.9;fill:none;" y1="716" y2="703" x1="760" x2="757" />
 <line transform="translate(-25,-101)" style="stroke:rgb(255,0,0);stroke-width:0.9;fill:none;" y1="716" y2="712" x1="760" x2="748" />
 <line transform="translate(-25,-101)" style="stroke:rgb(255,0,0);stroke-width:0.9;fill:none;" y1="744" y2="744" x1="760" x2="747" />
 <line transform="translate(-25,-101)" style="stroke:rgb(255,0,0);stroke-width:0.9;fill:none;" y1="744" y2="755" x1="747" x2="754" />
 <line transform="translate(-25,-101)" style="stroke:rgb(255,0,0);stroke-width:0.9;fill:none;" y1="744" y2="755" x1="760" x2="754" />
 <line transform="translate(-25,-101)" style="stroke:rgb(255,0,0);stroke-width:0.9;fill:none;" y1="744" y2="755" x1="500" x2="507" />
 <line transform="translate(-25,-101)" style="stroke:rgb(255,0,0);stroke-width:0.9;fill:none;" y1="755" y2="743" x1="507" x2="513" />
 <line transform="translate(-25,-101)" style="stroke:rgb(255,0,0);stroke-width:0.9;fill:none;" y1="744" y2="743" x1="500" x2="513" />
 <line transform="translate(-25,-101)" style="stroke:rgb(255,0,0);stroke-width:0.9;fill:none;" y1="708" y2="707" x1="483" x2="470" />
 <line transform="translate(-25,-101)" style="stroke:rgb(255,0,0);stroke-width:0.9;fill:none;" y1="716" y2="716" x1="479" x2="490" />
 <line transform="translate(-25,-101)" style="stroke:rgb(255,0,0);stroke-width:0.9;fill:none;" y1="716" y2="708" x1="490" x2="483" />
 <line transform="translate(-25,-101)" style="stroke:rgb(255,0,0);stroke-width:0.9;fill:none;" y1="707" y2="716" x1="470" x2="479" />
 <rect width="411" x="25" y="498" height="98" transform="translate(-25,-101)" style="stroke:rgb(255,0,0);stroke-width:0.9;fill:rgb(255,255,192);" />
 <text x="230" y="510" transform="translate(-25,-101)" style="fill:rgb(0,0,0);stroke-width:0;font-size:10;font-style:italic;font-weight:700;font-family:Sans Serif;" text-anchor="middle" >imageDrawingClass</text>
 <line transform="translate(-25,-101)" style="stroke:rgb(255,0,0);stroke-width:0.9;fill:rgb(255,255,192);" y1="512" y2="512" x1="25" x2="435" />
 <text x="30" y="524" transform="translate(-25,-101)" style="fill:rgb(0,0,0);stroke-width:0;font-size:10;font-style:normal;font-weight:400;font-family:Sans Serif;" >- myDC : wxPaintDC</text>
 <text x="30" y="538" transform="translate(-25,-101)" style="fill:rgb(0,0,0);stroke-width:0;font-size:10;font-style:normal;font-weight:400;font-family:Sans Serif;" >- myBitMap : wxBitmap</text>
 <text x="30" y="552" transform="translate(-25,-101)" style="fill:rgb(0,0,0);stroke-width:0;font-size:10;font-style:normal;font-weight:400;font-family:Sans Serif;" >- myImage : wxImage</text>
 <line transform="translate(-25,-101)" style="stroke:rgb(255,0,0);stroke-width:0.9;fill:rgb(255,255,192);" y1="554" y2="554" x1="25" x2="435" />
 <text x="30" y="566" transform="translate(-25,-101)" style="fill:rgb(0,0,0);stroke-width:0;font-size:10;font-style:normal;font-weight:400;font-family:Sans Serif;" >+ imageDrawingClass(parent : wxWindow, id : wxWindowID, myImage : wxImage)</text>
 <text x="30" y="580" transform="translate(-25,-101)" style="fill:rgb(0,0,0);stroke-width:0;font-size:10;font-style:normal;font-weight:400;font-family:Sans Serif;" >+ convertImage()</text>
 <text x="30" y="594" transform="translate(-25,-101)" style="fill:rgb(0,0,0);stroke-width:0;font-size:10;font-style:normal;font-weight:400;font-family:Sans Serif;" >+ onPaint(ev : wxPaintEvent)</text>
 <rect width="148" x="566" y="101" height="58" transform="translate(-25,-101)" style="stroke:rgb(255,0,0);stroke-width:0.9;fill:rgb(255,255,192);" />
 <text x="640" y="113" transform="translate(-25,-101)" style="fill:rgb(0,0,0);stroke-width:0;font-size:10;font-style:normal;font-weight:700;font-family:Sans Serif;" text-anchor="middle" >bijutsukan</text>
 <line transform="translate(-25,-101)" style="stroke:rgb(255,0,0);stroke-width:0.9;fill:rgb(255,255,192);" y1="115" y2="115" x1="566" x2="713" />
 <line transform="translate(-25,-101)" style="stroke:rgb(255,0,0);stroke-width:0.9;fill:rgb(255,255,192);" y1="122" y2="122" x1="566" x2="713" />
 <text x="571" y="134" transform="translate(-25,-101)" style="fill:rgb(0,0,0);stroke-width:0;font-size:10;font-style:normal;font-weight:400;font-family:Sans Serif;" >+ OnInit() : bool</text>
 <rect width="87" x="457" y="716" height="28" transform="translate(-25,-101)" style="stroke:rgb(255,0,0);stroke-width:0.9;fill:rgb(255,255,192);" />
 <text x="500" y="728" transform="translate(-25,-101)" style="fill:rgb(0,0,0);stroke-width:0;font-size:10;font-style:normal;font-weight:700;font-family:Sans Serif;" text-anchor="middle" >drawingPanel</text>
 <line transform="translate(-25,-101)" style="stroke:rgb(255,0,0);stroke-width:0.9;fill:rgb(255,255,192);" y1="730" y2="730" x1="457" x2="543" />
 <line transform="translate(-25,-101)" style="stroke:rgb(255,0,0);stroke-width:0.9;fill:rgb(255,255,192);" y1="737" y2="737" x1="457" x2="543" />
 <rect width="107" x="577" y="716" height="28" transform="translate(-25,-101)" style="stroke:rgb(255,0,0);stroke-width:0.9;fill:rgb(255,255,192);" />
 <text x="630" y="728" transform="translate(-25,-101)" style="fill:rgb(0,0,0);stroke-width:0;font-size:10;font-style:normal;font-weight:700;font-family:Sans Serif;" text-anchor="middle" >specificGridPanel</text>
 <line transform="translate(-25,-101)" style="stroke:rgb(255,0,0);stroke-width:0.9;fill:rgb(255,255,192);" y1="730" y2="730" x1="577" x2="683" />
 <line transform="translate(-25,-101)" style="stroke:rgb(255,0,0);stroke-width:0.9;fill:rgb(255,255,192);" y1="737" y2="737" x1="577" x2="683" />
 <rect width="169" x="1006" y="846" height="49" transform="translate(-25,-101)" style="stroke:rgb(255,0,0);stroke-width:0.9;fill:rgb(255,255,192);" />
 <text x="1090" y="858" transform="translate(-25,-101)" style="fill:rgb(0,0,0);stroke-width:0;font-size:10;font-style:normal;font-weight:700;font-family:Sans Serif;" text-anchor="middle" >positionListPanel</text>
 <line transform="translate(-25,-101)" style="stroke:rgb(255,0,0);stroke-width:0.9;fill:rgb(255,255,192);" y1="860" y2="860" x1="1006" x2="1174" />
 <text x="1011" y="872" transform="translate(-25,-101)" style="fill:rgb(0,0,0);stroke-width:0;font-size:10;font-style:normal;font-weight:400;font-family:Sans Serif;" >- myPositionList : wxArrayString</text>
 <text x="1011" y="886" transform="translate(-25,-101)" style="fill:rgb(0,0,0);stroke-width:0;font-size:10;font-style:normal;font-weight:400;font-family:Sans Serif;" >- positionSelector : wxTextCtrl</text>
 <line transform="translate(-25,-101)" style="stroke:rgb(255,0,0);stroke-width:0.9;fill:rgb(255,255,192);" y1="888" y2="888" x1="1006" x2="1174" />
 <rect width="265" x="508" y="794" height="112" transform="translate(-25,-101)" style="stroke:rgb(255,0,0);stroke-width:0.9;fill:rgb(255,255,192);" />
 <text x="640" y="806" transform="translate(-25,-101)" style="fill:rgb(0,0,0);stroke-width:0;font-size:10;font-style:normal;font-weight:700;font-family:Sans Serif;" text-anchor="middle" >genericResultPanel</text>
 <line transform="translate(-25,-101)" style="stroke:rgb(255,0,0);stroke-width:0.9;fill:rgb(255,255,192);" y1="808" y2="808" x1="508" x2="772" />
 <text x="513" y="820" transform="translate(-25,-101)" style="fill:rgb(0,0,0);stroke-width:0;font-size:10;font-style:normal;font-weight:400;font-family:Sans Serif;" >- description : wxStaticText</text>
 <text x="513" y="834" transform="translate(-25,-101)" style="fill:rgb(0,0,0);stroke-width:0;font-size:10;font-style:normal;font-weight:400;font-family:Sans Serif;" >- editButton : wxButton</text>
 <text x="513" y="848" transform="translate(-25,-101)" style="fill:rgb(0,0,0);stroke-width:0;font-size:10;font-style:normal;font-weight:400;font-family:Sans Serif;" >- viewButton : wxButton</text>
 <text x="513" y="862" transform="translate(-25,-101)" style="fill:rgb(0,0,0);stroke-width:0;font-size:10;font-style:normal;font-weight:400;font-family:Sans Serif;" >- deleteButton : wxButton</text>
 <line transform="translate(-25,-101)" style="stroke:rgb(255,0,0);stroke-width:0.9;fill:rgb(255,255,192);" y1="864" y2="864" x1="508" x2="772" />
 <text x="513" y="876" transform="translate(-25,-101)" style="fill:rgb(0,0,0);stroke-width:0;font-size:10;font-style:normal;font-weight:400;font-family:Sans Serif;" >+ genericResultPanel()</text>
 <text x="513" y="890" transform="translate(-25,-101)" style="fill:rgb(0,0,0);stroke-width:0;font-size:10;font-style:normal;font-weight:400;font-family:Sans Serif;" >+ gridEventHandler(event : wxGridEvent)</text>
 <text x="513" y="904" transform="translate(-25,-101)" style="fill:rgb(0,0,0);stroke-width:0;font-size:10;font-style:normal;font-weight:400;font-family:Sans Serif;" >+ genericEventHandler(event : wxCommandEvent)</text>
 <rect width="162" x="1009" y="772" height="56" transform="translate(-25,-101)" style="stroke:rgb(255,0,0);stroke-width:0.9;fill:rgb(255,255,192);" />
 <text x="1090" y="784" transform="translate(-25,-101)" style="fill:rgb(0,0,0);stroke-width:0;font-size:10;font-style:normal;font-weight:700;font-family:Sans Serif;" text-anchor="middle" >objectListPanel</text>
 <line transform="translate(-25,-101)" style="stroke:rgb(255,0,0);stroke-width:0.9;fill:rgb(255,255,192);" y1="786" y2="786" x1="1009" x2="1170" />
 <text x="1014" y="798" transform="translate(-25,-101)" style="fill:rgb(0,0,0);stroke-width:0;font-size:10;font-style:normal;font-weight:400;font-family:Sans Serif;" >- myObjectList : wxArrayString</text>
 <text x="1014" y="812" transform="translate(-25,-101)" style="fill:rgb(0,0,0);stroke-width:0;font-size:10;font-style:normal;font-weight:400;font-family:Sans Serif;" >- objectSelector : wxTextCtrl</text>
 <line transform="translate(-25,-101)" style="stroke:rgb(255,0,0);stroke-width:0.9;fill:rgb(255,255,192);" y1="814" y2="814" x1="1009" x2="1170" />
 <text x="1014" y="826" transform="translate(-25,-101)" style="fill:rgb(0,0,0);stroke-width:0;font-size:10;font-style:normal;font-weight:400;font-family:Sans Serif;" >+ objectListPanel()</text>
 <rect width="265" x="548" y="511" height="98" transform="translate(-25,-101)" style="stroke:rgb(255,0,0);stroke-width:0.9;fill:rgb(255,255,192);" />
 <text x="680" y="523" transform="translate(-25,-101)" style="fill:rgb(0,0,0);stroke-width:0;font-size:10;font-style:normal;font-weight:700;font-family:Sans Serif;" text-anchor="middle" >genericListPanel</text>
 <line transform="translate(-25,-101)" style="stroke:rgb(255,0,0);stroke-width:0.9;fill:rgb(255,255,192);" y1="525" y2="525" x1="548" x2="812" />
 <text x="553" y="537" transform="translate(-25,-101)" style="fill:rgb(0,0,0);stroke-width:0;font-size:10;font-style:normal;font-weight:400;font-family:Sans Serif;" >- editButton : wxButton</text>
 <text x="553" y="551" transform="translate(-25,-101)" style="fill:rgb(0,0,0);stroke-width:0;font-size:10;font-style:normal;font-weight:400;font-family:Sans Serif;" >- deleteButton : wxButton</text>
 <text x="553" y="565" transform="translate(-25,-101)" style="fill:rgb(0,0,0);stroke-width:0;font-size:10;font-style:normal;font-weight:400;font-family:Sans Serif;" >- viewButton : wxButton</text>
 <text x="553" y="579" transform="translate(-25,-101)" style="fill:rgb(0,0,0);stroke-width:0;font-size:10;font-style:normal;font-weight:400;font-family:Sans Serif;" >- setMultipleAttributeButton : wxButton</text>
 <line transform="translate(-25,-101)" style="stroke:rgb(255,0,0);stroke-width:0.9;fill:rgb(255,255,192);" y1="581" y2="581" x1="548" x2="812" />
 <text x="553" y="593" transform="translate(-25,-101)" style="fill:rgb(0,0,0);stroke-width:0;font-size:10;font-style:normal;font-weight:400;font-family:Sans Serif;" >+ gridEventHandler(event : wxGridEvent)</text>
 <text x="553" y="607" transform="translate(-25,-101)" style="fill:rgb(0,0,0);stroke-width:0;font-size:10;font-style:normal;font-weight:400;font-family:Sans Serif;" >+ genericEventHandler(event : wxCommandEvent)</text>
 <rect width="165" x="1008" y="702" height="56" transform="translate(-25,-101)" style="stroke:rgb(255,0,0);stroke-width:0.9;fill:rgb(255,255,192);" />
 <text x="1090" y="714" transform="translate(-25,-101)" style="fill:rgb(0,0,0);stroke-width:0;font-size:10;font-style:normal;font-weight:700;font-family:Sans Serif;" text-anchor="middle" >personListPanel</text>
 <line transform="translate(-25,-101)" style="stroke:rgb(255,0,0);stroke-width:0.9;fill:rgb(255,255,192);" y1="716" y2="716" x1="1008" x2="1172" />
 <text x="1013" y="728" transform="translate(-25,-101)" style="fill:rgb(0,0,0);stroke-width:0;font-size:10;font-style:normal;font-weight:400;font-family:Sans Serif;" >- myPersonList : wxArrayString</text>
 <text x="1013" y="742" transform="translate(-25,-101)" style="fill:rgb(0,0,0);stroke-width:0;font-size:10;font-style:normal;font-weight:400;font-family:Sans Serif;" >- personSelector : wxTextCtrl</text>
 <line transform="translate(-25,-101)" style="stroke:rgb(255,0,0);stroke-width:0.9;fill:rgb(255,255,192);" y1="744" y2="744" x1="1008" x2="1172" />
 <text x="1013" y="756" transform="translate(-25,-101)" style="fill:rgb(0,0,0);stroke-width:0;font-size:10;font-style:normal;font-weight:400;font-family:Sans Serif;" >+ personListPanel()</text>
 <rect width="100" x="710" y="716" height="28" transform="translate(-25,-101)" style="stroke:rgb(255,0,0);stroke-width:0.9;fill:rgb(255,255,192);" />
 <text x="760" y="728" transform="translate(-25,-101)" style="fill:rgb(0,0,0);stroke-width:0;font-size:10;font-style:normal;font-weight:700;font-family:Sans Serif;" text-anchor="middle" >imageGridPanel</text>
 <line transform="translate(-25,-101)" style="stroke:rgb(255,0,0);stroke-width:0.9;fill:rgb(255,255,192);" y1="730" y2="730" x1="710" x2="809" />
 <line transform="translate(-25,-101)" style="stroke:rgb(255,0,0);stroke-width:0.9;fill:rgb(255,255,192);" y1="737" y2="737" x1="710" x2="809" />
 <rect width="338" x="471" y="215" height="270" transform="translate(-25,-101)" style="stroke:rgb(255,0,0);stroke-width:0.9;fill:rgb(255,255,192);" />
 <text x="640" y="227" transform="translate(-25,-101)" style="fill:rgb(0,0,0);stroke-width:0;font-size:10;font-style:normal;font-weight:700;font-family:Sans Serif;" text-anchor="middle" >mainFrame</text>
 <line transform="translate(-25,-101)" style="stroke:rgb(255,0,0);stroke-width:0.9;fill:rgb(255,255,192);" y1="229" y2="229" x1="471" x2="808" />
 <text x="476" y="241" transform="translate(-25,-101)" style="fill:rgb(0,0,0);stroke-width:0;font-size:10;font-style:normal;font-weight:400;font-family:Sans Serif;" >- currentEvent : int</text>
 <text x="476" y="255" transform="translate(-25,-101)" style="fill:rgb(0,0,0);stroke-width:0;font-size:10;font-style:normal;font-weight:400;font-family:Sans Serif;" >- dbIsOpen : bool</text>
 <text x="476" y="269" transform="translate(-25,-101)" style="fill:rgb(0,0,0);stroke-width:0;font-size:10;font-style:normal;font-weight:400;font-family:Sans Serif;" >- dbFileString : wxString</text>
 <text x="476" y="283" transform="translate(-25,-101)" style="fill:rgb(0,0,0);stroke-width:0;font-size:10;font-style:normal;font-weight:400;font-family:Sans Serif;" >- dbFileName : wxFileName</text>
 <text x="476" y="297" transform="translate(-25,-101)" style="fill:rgb(0,0,0);stroke-width:0;font-size:10;font-style:normal;font-weight:400;font-family:Sans Serif;" >- myAboutPanel : aboutPanel</text>
 <text x="476" y="311" transform="translate(-25,-101)" style="fill:rgb(0,0,0);stroke-width:0;font-size:10;font-style:normal;font-weight:400;font-family:Sans Serif;" >- menuBar : wxMenuBar</text>
 <text x="476" y="325" transform="translate(-25,-101)" style="fill:rgb(0,0,0);stroke-width:0;font-size:10;font-style:normal;font-weight:400;font-family:Sans Serif;" >- fileMenu : wxMenu</text>
 <text x="476" y="339" transform="translate(-25,-101)" style="fill:rgb(0,0,0);stroke-width:0;font-size:10;font-style:normal;font-weight:400;font-family:Sans Serif;" >- findMenu : wxMenu</text>
 <text x="476" y="353" transform="translate(-25,-101)" style="fill:rgb(0,0,0);stroke-width:0;font-size:10;font-style:normal;font-weight:400;font-family:Sans Serif;" >- findBySubMenu : wxMenu</text>
 <text x="476" y="367" transform="translate(-25,-101)" style="fill:rgb(0,0,0);stroke-width:0;font-size:10;font-style:normal;font-weight:400;font-family:Sans Serif;" >- inputMenu : wxMenu</text>
 <text x="476" y="381" transform="translate(-25,-101)" style="fill:rgb(0,0,0);stroke-width:0;font-size:10;font-style:normal;font-weight:400;font-family:Sans Serif;" >- categoryMenu : wxMenu</text>
 <text x="476" y="395" transform="translate(-25,-101)" style="fill:rgb(0,0,0);stroke-width:0;font-size:10;font-style:normal;font-weight:400;font-family:Sans Serif;" >- optionsMenu : wxMenu</text>
 <line transform="translate(-25,-101)" style="stroke:rgb(255,0,0);stroke-width:0.9;fill:rgb(255,255,192);" y1="397" y2="397" x1="471" x2="808" />
 <text x="476" y="409" transform="translate(-25,-101)" style="fill:rgb(0,0,0);stroke-width:0;font-size:10;font-style:normal;font-weight:400;font-family:Sans Serif;" >+ mainFrame(title : wxString, pos : wxPoint, size : wxSize)</text>
 <text x="476" y="423" transform="translate(-25,-101)" style="fill:rgb(0,0,0);stroke-width:0;font-size:10;font-style:normal;font-weight:400;font-family:Sans Serif;" >+ onQuit(event : wxCommandEvent)</text>
 <text x="476" y="437" transform="translate(-25,-101)" style="fill:rgb(0,0,0);stroke-width:0;font-size:10;font-style:normal;font-weight:400;font-family:Sans Serif;" >+ eventHandler(event : wxCommandEvent)</text>
 <text x="476" y="451" transform="translate(-25,-101)" style="fill:rgb(0,0,0);stroke-width:0;font-size:10;font-style:normal;font-weight:400;font-family:Sans Serif;" >- makeMenu()</text>
 <text x="476" y="465" transform="translate(-25,-101)" style="fill:rgb(0,0,0);stroke-width:0;font-size:10;font-style:normal;font-weight:400;font-family:Sans Serif;" >- deletePanel()</text>
 <rect width="167" x="1007" y="622" height="56" transform="translate(-25,-101)" style="stroke:rgb(255,0,0);stroke-width:0.9;fill:rgb(255,255,192);" />
 <text x="1090" y="634" transform="translate(-25,-101)" style="fill:rgb(0,0,0);stroke-width:0;font-size:10;font-style:normal;font-weight:700;font-family:Sans Serif;" text-anchor="middle" >labeListPanel</text>
 <line transform="translate(-25,-101)" style="stroke:rgb(255,0,0);stroke-width:0.9;fill:rgb(255,255,192);" y1="636" y2="636" x1="1007" x2="1173" />
 <text x="1012" y="648" transform="translate(-25,-101)" style="fill:rgb(0,0,0);stroke-width:0;font-size:10;font-style:normal;font-weight:400;font-family:Sans Serif;" >- myLabelList : wxArrayString</text>
 <text x="1012" y="662" transform="translate(-25,-101)" style="fill:rgb(0,0,0);stroke-width:0;font-size:10;font-style:normal;font-weight:400;font-family:Sans Serif;" >- labelSelector : wxListCtrl</text>
 <line transform="translate(-25,-101)" style="stroke:rgb(255,0,0);stroke-width:0.9;fill:rgb(255,255,192);" y1="664" y2="664" x1="1007" x2="1173" />
 <text x="1012" y="676" transform="translate(-25,-101)" style="fill:rgb(0,0,0);stroke-width:0;font-size:10;font-style:normal;font-weight:400;font-family:Sans Serif;" >+ labeListPanel()</text>
 <rect width="229" x="956" y="205" height="210" transform="translate(-25,-101)" style="stroke:rgb(255,0,0);stroke-width:0.9;fill:rgb(255,255,192);" />
 <text x="1070" y="217" transform="translate(-25,-101)" style="fill:rgb(0,0,0);stroke-width:0;font-size:10;font-style:normal;font-weight:700;font-family:Sans Serif;" text-anchor="middle" >mainPanel</text>
 <line transform="translate(-25,-101)" style="stroke:rgb(255,0,0);stroke-width:0.9;fill:rgb(255,255,192);" y1="219" y2="219" x1="956" x2="1184" />
 <text x="961" y="231" transform="translate(-25,-101)" style="fill:rgb(0,0,0);stroke-width:0;font-size:10;font-style:normal;font-weight:400;font-family:Sans Serif;" >- mainCaption : wxStaticText</text>
 <text x="961" y="245" transform="translate(-25,-101)" style="fill:rgb(0,0,0);stroke-width:0;font-size:10;font-style:normal;font-weight:400;font-family:Sans Serif;" >- findDescription : wxStaticText</text>
 <text x="961" y="259" transform="translate(-25,-101)" style="fill:rgb(0,0,0);stroke-width:0;font-size:10;font-style:normal;font-weight:400;font-family:Sans Serif;" >- listDescription : wxStaticText</text>
 <text x="961" y="273" transform="translate(-25,-101)" style="fill:rgb(0,0,0);stroke-width:0;font-size:10;font-style:normal;font-weight:400;font-family:Sans Serif;" >- inputDescription : wxStaticText</text>
 <text x="961" y="287" transform="translate(-25,-101)" style="fill:rgb(0,0,0);stroke-width:0;font-size:10;font-style:normal;font-weight:400;font-family:Sans Serif;" >- inputWizard : wxButton</text>
 <text x="961" y="301" transform="translate(-25,-101)" style="fill:rgb(0,0,0);stroke-width:0;font-size:10;font-style:normal;font-weight:400;font-family:Sans Serif;" >- inputPath : wxButton</text>
 <text x="961" y="315" transform="translate(-25,-101)" style="fill:rgb(0,0,0);stroke-width:0;font-size:10;font-style:normal;font-weight:400;font-family:Sans Serif;" >- inputDir : wxButton</text>
 <text x="961" y="329" transform="translate(-25,-101)" style="fill:rgb(0,0,0);stroke-width:0;font-size:10;font-style:normal;font-weight:400;font-family:Sans Serif;" >- fileList : wxButton</text>
 <text x="961" y="343" transform="translate(-25,-101)" style="fill:rgb(0,0,0);stroke-width:0;font-size:10;font-style:normal;font-weight:400;font-family:Sans Serif;" >- labelList : wxButton</text>
 <text x="961" y="357" transform="translate(-25,-101)" style="fill:rgb(0,0,0);stroke-width:0;font-size:10;font-style:normal;font-weight:400;font-family:Sans Serif;" >- personList : wxButton</text>
 <text x="961" y="371" transform="translate(-25,-101)" style="fill:rgb(0,0,0);stroke-width:0;font-size:10;font-style:normal;font-weight:400;font-family:Sans Serif;" >- positionList : wxButton</text>
 <text x="961" y="385" transform="translate(-25,-101)" style="fill:rgb(0,0,0);stroke-width:0;font-size:10;font-style:normal;font-weight:400;font-family:Sans Serif;" >- findBy : wxButton</text>
 <line transform="translate(-25,-101)" style="stroke:rgb(255,0,0);stroke-width:0.9;fill:rgb(255,255,192);" y1="387" y2="387" x1="956" x2="1184" />
 <text x="961" y="399" transform="translate(-25,-101)" style="fill:rgb(0,0,0);stroke-width:0;font-size:10;font-style:normal;font-weight:400;font-family:Sans Serif;" >+ mainPanel(parent : wxWindow)</text>
 <text x="961" y="413" transform="translate(-25,-101)" style="fill:rgb(0,0,0);stroke-width:0;font-size:10;font-style:normal;font-weight:400;font-family:Sans Serif;" >+ eventHandler(event : wxCommandEvent)</text>
 <rect width="242" x="1509" y="431" height="479" transform="translate(-25,-101)" style="stroke:rgb(255,0,0);stroke-width:0.9;fill:rgb(255,255,192);" />
 <text x="1630" y="443" transform="translate(-25,-101)" style="fill:rgb(0,0,0);stroke-width:0;font-size:10;font-style:normal;font-weight:700;font-family:Sans Serif;" text-anchor="middle" >imageObject</text>
 <line transform="translate(-25,-101)" style="stroke:rgb(255,0,0);stroke-width:0.9;fill:rgb(255,255,192);" y1="445" y2="445" x1="1509" x2="1750" />
 <text x="1514" y="457" transform="translate(-25,-101)" style="fill:rgb(0,0,0);stroke-width:0;font-size:10;font-style:normal;font-weight:400;font-family:Sans Serif;" >- filePath : wxString</text>
 <text x="1514" y="471" transform="translate(-25,-101)" style="fill:rgb(0,0,0);stroke-width:0;font-size:10;font-style:normal;font-weight:400;font-family:Sans Serif;" >- fileTitle : wxString</text>
 <text x="1514" y="485" transform="translate(-25,-101)" style="fill:rgb(0,0,0);stroke-width:0;font-size:10;font-style:normal;font-weight:400;font-family:Sans Serif;" >- fileDescription : wxString</text>
 <text x="1514" y="499" transform="translate(-25,-101)" style="fill:rgb(0,0,0);stroke-width:0;font-size:10;font-style:normal;font-weight:400;font-family:Sans Serif;" >- fileCategory : wxString</text>
 <text x="1514" y="513" transform="translate(-25,-101)" style="fill:rgb(0,0,0);stroke-width:0;font-size:10;font-style:normal;font-weight:400;font-family:Sans Serif;" >- fileLabels : wxArrayString</text>
 <text x="1514" y="527" transform="translate(-25,-101)" style="fill:rgb(0,0,0);stroke-width:0;font-size:10;font-style:normal;font-weight:400;font-family:Sans Serif;" >- filePersons : wxArrayString</text>
 <text x="1514" y="541" transform="translate(-25,-101)" style="fill:rgb(0,0,0);stroke-width:0;font-size:10;font-style:normal;font-weight:400;font-family:Sans Serif;" >- fileObjects : wxArrayString</text>
 <text x="1514" y="555" transform="translate(-25,-101)" style="fill:rgb(0,0,0);stroke-width:0;font-size:10;font-style:normal;font-weight:400;font-family:Sans Serif;" >- fileLocations : wxArrayString</text>
 <text x="1514" y="569" transform="translate(-25,-101)" style="fill:rgb(0,0,0);stroke-width:0;font-size:10;font-style:normal;font-weight:400;font-family:Sans Serif;" >- filePositions : wxArrayString</text>
 <line transform="translate(-25,-101)" style="stroke:rgb(255,0,0);stroke-width:0.9;fill:rgb(255,255,192);" y1="571" y2="571" x1="1509" x2="1750" />
 <text x="1514" y="583" transform="translate(-25,-101)" style="fill:rgb(0,0,0);stroke-width:0;font-size:10;font-style:normal;font-weight:400;font-family:Sans Serif;" >+ imageObject(path : wxString)</text>
 <text x="1514" y="597" transform="translate(-25,-101)" style="fill:rgb(0,0,0);stroke-width:0;font-size:10;font-style:normal;font-weight:400;font-family:Sans Serif;" >+ getFilePath() : wxString</text>
 <text x="1514" y="611" transform="translate(-25,-101)" style="fill:rgb(0,0,0);stroke-width:0;font-size:10;font-style:normal;font-weight:400;font-family:Sans Serif;" >+ getFileTitle() : wxString</text>
 <text x="1514" y="625" transform="translate(-25,-101)" style="fill:rgb(0,0,0);stroke-width:0;font-size:10;font-style:normal;font-weight:400;font-family:Sans Serif;" >+ getFileDescription() : wxString</text>
 <text x="1514" y="639" transform="translate(-25,-101)" style="fill:rgb(0,0,0);stroke-width:0;font-size:10;font-style:normal;font-weight:400;font-family:Sans Serif;" >+ getCategory() : wxString</text>
 <text x="1514" y="653" transform="translate(-25,-101)" style="fill:rgb(0,0,0);stroke-width:0;font-size:10;font-style:normal;font-weight:400;font-family:Sans Serif;" >+ setFilePath(nfilePath : wxString)</text>
 <text x="1514" y="667" transform="translate(-25,-101)" style="fill:rgb(0,0,0);stroke-width:0;font-size:10;font-style:normal;font-weight:400;font-family:Sans Serif;" >+ setFileTitle(nfileTitle : wxString)</text>
 <text x="1514" y="681" transform="translate(-25,-101)" style="fill:rgb(0,0,0);stroke-width:0;font-size:10;font-style:normal;font-weight:400;font-family:Sans Serif;" >+ setFileDescription(nfileDescription : wxString)</text>
 <text x="1514" y="695" transform="translate(-25,-101)" style="fill:rgb(0,0,0);stroke-width:0;font-size:10;font-style:normal;font-weight:400;font-family:Sans Serif;" >+ setFileCategory(nfileCategory : wxString)</text>
 <text x="1514" y="709" transform="translate(-25,-101)" style="fill:rgb(0,0,0);stroke-width:0;font-size:10;font-style:normal;font-weight:400;font-family:Sans Serif;" >+ getFileLabels() : wxArrayString</text>
 <text x="1514" y="723" transform="translate(-25,-101)" style="fill:rgb(0,0,0);stroke-width:0;font-size:10;font-style:normal;font-weight:400;font-family:Sans Serif;" >+ getFilePersons() : wxArrayString</text>
 <text x="1514" y="737" transform="translate(-25,-101)" style="fill:rgb(0,0,0);stroke-width:0;font-size:10;font-style:normal;font-weight:400;font-family:Sans Serif;" >+ getFileObjects() : wxArrayString</text>
 <text x="1514" y="751" transform="translate(-25,-101)" style="fill:rgb(0,0,0);stroke-width:0;font-size:10;font-style:normal;font-weight:400;font-family:Sans Serif;" >+ getFileLocations() : wxArrayString</text>
 <text x="1514" y="765" transform="translate(-25,-101)" style="fill:rgb(0,0,0);stroke-width:0;font-size:10;font-style:normal;font-weight:400;font-family:Sans Serif;" >+ getFilePositions() : wxArrayString</text>
 <text x="1514" y="779" transform="translate(-25,-101)" style="fill:rgb(0,0,0);stroke-width:0;font-size:10;font-style:normal;font-weight:400;font-family:Sans Serif;" >+ addFileLables(nfileLabel : wxString)</text>
 <text x="1514" y="793" transform="translate(-25,-101)" style="fill:rgb(0,0,0);stroke-width:0;font-size:10;font-style:normal;font-weight:400;font-family:Sans Serif;" >+ addFilePersons(nfilePerson : wxString)</text>
 <text x="1514" y="807" transform="translate(-25,-101)" style="fill:rgb(0,0,0);stroke-width:0;font-size:10;font-style:normal;font-weight:400;font-family:Sans Serif;" >+ addFileObjects(nfileObject : wxString)</text>
 <text x="1514" y="821" transform="translate(-25,-101)" style="fill:rgb(0,0,0);stroke-width:0;font-size:10;font-style:normal;font-weight:400;font-family:Sans Serif;" >+ addFileLocations(nfileLocation : wxString)</text>
 <text x="1514" y="835" transform="translate(-25,-101)" style="fill:rgb(0,0,0);stroke-width:0;font-size:10;font-style:normal;font-weight:400;font-family:Sans Serif;" >+ addFilePositions(nfilePosition : wxString)</text>
 <text x="1514" y="849" transform="translate(-25,-101)" style="fill:rgb(0,0,0);stroke-width:0;font-size:10;font-style:normal;font-weight:400;font-family:Sans Serif;" >+ delFileLabels(nfileLabel : wxString)</text>
 <text x="1514" y="863" transform="translate(-25,-101)" style="fill:rgb(0,0,0);stroke-width:0;font-size:10;font-style:normal;font-weight:400;font-family:Sans Serif;" >+ delFilePersons(nfilePerson : wxString)</text>
 <text x="1514" y="877" transform="translate(-25,-101)" style="fill:rgb(0,0,0);stroke-width:0;font-size:10;font-style:normal;font-weight:400;font-family:Sans Serif;" >+ delFileObjects(nfileObject : wxString)</text>
 <text x="1514" y="891" transform="translate(-25,-101)" style="fill:rgb(0,0,0);stroke-width:0;font-size:10;font-style:normal;font-weight:400;font-family:Sans Serif;" >+ delFileLocations(nfileLocation : wxString)</text>
 <text x="1514" y="905" transform="translate(-25,-101)" style="fill:rgb(0,0,0);stroke-width:0;font-size:10;font-style:normal;font-weight:400;font-family:Sans Serif;" >+ delFilePositions(nfilePosition : wxString)</text>
 <rect width="135" x="1013" y="542" height="56" transform="translate(-25,-101)" style="stroke:rgb(255,0,0);stroke-width:0.9;fill:rgb(255,255,192);" />
 <text x="1080" y="554" transform="translate(-25,-101)" style="fill:rgb(0,0,0);stroke-width:0;font-size:10;font-style:normal;font-weight:700;font-family:Sans Serif;" text-anchor="middle" >fileListPanel</text>
 <line transform="translate(-25,-101)" style="stroke:rgb(255,0,0);stroke-width:0.9;fill:rgb(255,255,192);" y1="556" y2="556" x1="1013" x2="1147" />
 <text x="1018" y="568" transform="translate(-25,-101)" style="fill:rgb(0,0,0);stroke-width:0;font-size:10;font-style:normal;font-weight:400;font-family:Sans Serif;" >- myFileList : fileIndex</text>
 <text x="1018" y="582" transform="translate(-25,-101)" style="fill:rgb(0,0,0);stroke-width:0;font-size:10;font-style:normal;font-weight:400;font-family:Sans Serif;" >- fileSelector : wxTextCtrl</text>
 <line transform="translate(-25,-101)" style="stroke:rgb(255,0,0);stroke-width:0.9;fill:rgb(255,255,192);" y1="584" y2="584" x1="1013" x2="1147" />
 <text x="1018" y="596" transform="translate(-25,-101)" style="fill:rgb(0,0,0);stroke-width:0;font-size:10;font-style:normal;font-weight:400;font-family:Sans Serif;" >+ fileListPanel()</text>
 <rect width="355" x="1323" y="200" height="140" transform="translate(-25,-101)" style="stroke:rgb(255,0,0);stroke-width:0.9;fill:rgb(255,255,192);" />
 <text x="1500" y="212" transform="translate(-25,-101)" style="fill:rgb(0,0,0);stroke-width:0;font-size:10;font-style:normal;font-weight:700;font-family:Sans Serif;" text-anchor="middle" >fileIndex</text>
 <line transform="translate(-25,-101)" style="stroke:rgb(255,0,0);stroke-width:0.9;fill:rgb(255,255,192);" y1="214" y2="214" x1="1323" x2="1677" />
 <text x="1328" y="226" transform="translate(-25,-101)" style="fill:rgb(0,0,0);stroke-width:0;font-size:10;font-style:normal;font-weight:400;font-family:Sans Serif;" >- pathIndex : wxArrayString</text>
 <text x="1328" y="240" transform="translate(-25,-101)" style="fill:rgb(0,0,0);stroke-width:0;font-size:10;font-style:normal;font-weight:400;font-family:Sans Serif;" >- imageObjectArray : wxArray</text>
 <line transform="translate(-25,-101)" style="stroke:rgb(255,0,0);stroke-width:0.9;fill:rgb(255,255,192);" y1="242" y2="242" x1="1323" x2="1677" />
 <text x="1328" y="254" transform="translate(-25,-101)" style="fill:rgb(0,0,0);stroke-width:0;font-size:10;font-style:normal;font-weight:400;font-family:Sans Serif;" >+ fileIndex()</text>
 <text x="1328" y="268" transform="translate(-25,-101)" style="fill:rgb(0,0,0);stroke-width:0;font-size:10;font-style:normal;font-weight:400;font-family:Sans Serif;" >+ getPathIndex(value : wxString, caseSensitive : bool) : wxArrayString</text>
 <text x="1328" y="282" transform="translate(-25,-101)" style="fill:rgb(0,0,0);stroke-width:0;font-size:10;font-style:normal;font-weight:400;font-family:Sans Serif;" >+ addFile(filePath : wxString)</text>
 <text x="1328" y="296" transform="translate(-25,-101)" style="fill:rgb(0,0,0);stroke-width:0;font-size:10;font-style:normal;font-weight:400;font-family:Sans Serif;" >+ delFile(filePath : wxString)</text>
 <text x="1328" y="310" transform="translate(-25,-101)" style="fill:rgb(0,0,0);stroke-width:0;font-size:10;font-style:normal;font-weight:400;font-family:Sans Serif;" >+ makeImageObject(filePath : wxString)</text>
 <text x="1328" y="324" transform="translate(-25,-101)" style="fill:rgb(0,0,0);stroke-width:0;font-size:10;font-style:normal;font-weight:400;font-family:Sans Serif;" >+ findValue(value : wxString, caseSensitive : bool) : int</text>
 <text x="1328" y="338" transform="translate(-25,-101)" style="fill:rgb(0,0,0);stroke-width:0;font-size:10;font-style:normal;font-weight:400;font-family:Sans Serif;" >+ getImageObjects() : wxArray</text>
 <text x="1690" y="395" transform="translate(-25,-101)" style="fill:rgb(50,50,50);stroke-width:0;font-size:10;font-style:normal;font-weight:400;font-family:Sans Serif;" text-anchor="middle" >Collecting imageObjects</text>
 <text x="1330" y="355" transform="translate(-25,-101)" style="fill:rgb(50,50,50);stroke-width:0;font-size:10;font-style:normal;font-weight:400;font-family:Sans Serif;" text-anchor="middle" >+myFileIdex</text>
</svg>
