<?xml version="1.0" standalone="no"?>
<!DOCTYPE svg PUBLIC "-//W3C//DTD SVG 20001102//EN" "http://www.w3.org/TR/2000/CR-SVG-20001102/DTD/svg-20001102.dtd">
<svg xmlns="http://www.w3.org/2000/svg" width="1295" x="0" y="0" height="809" id="/store/sources/bijutsukan/bijutsukan/developer/class diagram" >
 <rect width="1295" x="27" y="31" height="809" transform="translate(-27,-31)" style="stroke:rgb(0,0,0);stroke-width:0;fill:rgb(255,255,255);" />
 <line transform="translate(-27,-31)" style="stroke:rgb(255,0,0);stroke-width:0.9;fill:none;" y1="702" y2="270" x1="690" x2="1100" />
 <line transform="translate(-27,-31)" style="stroke:rgb(255,0,0);stroke-width:0.9;fill:none;" y1="632" y2="270" x1="690" x2="1050" />
 <line transform="translate(-27,-31)" style="stroke:rgb(255,0,0);stroke-width:0.9;fill:none;" y1="776" y2="270" x1="690" x2="1150" />
 <line transform="translate(-27,-31)" style="stroke:rgb(255,0,0);stroke-width:0.9;fill:none;" y1="550" y2="586" x1="178" x2="80" />
 <line transform="translate(-27,-31)" style="stroke:rgb(255,0,0);stroke-width:0.9;fill:none;" y1="240" y2="290" x1="379" x2="566" />
 <line transform="translate(-27,-31)" style="stroke:rgb(255,0,0);stroke-width:0.9;fill:none;" y1="330" y2="472" x1="379" x2="630" />
 <line transform="translate(-27,-31)" style="stroke:rgb(255,0,0);stroke-width:0.9;fill:none;" y1="89" y2="145" x1="210" x2="210" />
 <line transform="translate(-27,-31)" style="stroke:rgb(255,0,0);stroke-width:0.9;fill:none;" y1="270" y2="361" x1="1200" x2="1200" />
 <line transform="translate(-27,-31)" style="stroke:rgb(255,0,0);stroke-width:0.9;fill:none;" y1="552" y2="270" x1="660" x2="990" />
 <line transform="translate(-27,-31)" style="stroke:rgb(255,0,0);stroke-width:0.9;fill:none;" y1="510" y2="460" x1="178" x2="115" />
 <line transform="translate(-27,-31)" style="stroke:rgb(255,0,0);stroke-width:0.9;fill:none;" y1="530" y2="540" x1="178" x2="134" />
 <line transform="translate(-27,-31)" style="stroke:rgb(255,0,0);stroke-width:0.9;fill:none;" y1="500" y2="510" x1="583" x2="443" />
 <line transform="translate(-27,-31)" style="stroke:rgb(255,0,0);stroke-width:0.9;fill:none;" y1="580" y2="550" x1="577" x2="443" />
 <line transform="translate(-27,-31)" style="stroke:rgb(255,0,0);stroke-width:0.9;fill:none;" y1="472" y2="270" x1="670" x2="940" />
 <line transform="translate(-27,-31)" style="stroke:rgb(255,0,0);stroke-width:0.9;fill:none;" y1="632" y2="579" x1="630" x2="380" />
 <line transform="translate(-27,-31)" style="stroke:rgb(255,0,0);stroke-width:0.9;fill:none;" y1="702" y2="579" x1="630" x2="310" />
 <line transform="translate(-27,-31)" style="stroke:rgb(255,0,0);stroke-width:0.9;fill:none;" y1="776" y2="579" x1="630" x2="240" />
 <polygon points="690 702 700 698 705 686 694 692" transform="translate(-27,-31)" style="stroke:rgb(0,0,0);stroke-width:0;fill:rgb(255,0,0);" />
 <polygon points="690 632 700 628 706 616 694 622" transform="translate(-27,-31)" style="stroke:rgb(0,0,0);stroke-width:0;fill:rgb(255,0,0);" />
 <polygon points="690 776 700 771 705 760 694 766" transform="translate(-27,-31)" style="stroke:rgb(0,0,0);stroke-width:0;fill:rgb(255,0,0);" />
 <polygon points="379 240 388 247 400 246 390 239" transform="translate(-27,-31)" style="stroke:rgb(0,0,0);stroke-width:0;fill:rgb(255,255,255);" />
 <polygon points="379 330 386 339 398 341 390 331" transform="translate(-27,-31)" style="stroke:rgb(0,0,0);stroke-width:0;fill:rgb(255,255,255);" />
 <polygon points="210 89 206 99 210 111 214 99" transform="translate(-27,-31)" style="stroke:rgb(0,0,0);stroke-width:0;fill:rgb(255,0,0);" />
 <polygon points="1200 270 1196 280 1200 292 1204 280" transform="translate(-27,-31)" style="stroke:rgb(0,0,0);stroke-width:0;fill:rgb(255,0,0);" />
 <polygon points="660 552 670 549 677 538 665 542" transform="translate(-27,-31)" style="stroke:rgb(0,0,0);stroke-width:0;fill:rgb(255,0,0);" />
 <polygon points="115 460 120 472 128 462 115 460" transform="translate(-27,-31)" style="stroke:rgb(0,0,0);stroke-width:0;fill:rgb(255,255,255);" />
 <polygon points="134 540 146 544 144 531 134 540" transform="translate(-27,-31)" style="stroke:rgb(0,0,0);stroke-width:0;fill:rgb(255,255,255);" />
 <polygon points="443 510 455 516 454 503 443 510" transform="translate(-27,-31)" style="stroke:rgb(0,0,0);stroke-width:0;fill:rgb(255,255,255);" />
 <polygon points="443 550 453 559 455 546 443 550" transform="translate(-27,-31)" style="stroke:rgb(0,0,0);stroke-width:0;fill:rgb(255,255,255);" />
 <polygon points="670 472 681 469 688 459 676 463" transform="translate(-27,-31)" style="stroke:rgb(0,0,0);stroke-width:0;fill:rgb(255,0,0);" />
 <polygon points="380 579 390 588 392 575 380 579" transform="translate(-27,-31)" style="stroke:rgb(0,0,0);stroke-width:0;fill:rgb(255,255,255);" />
 <polygon points="310 579 318 589 323 577 310 579" transform="translate(-27,-31)" style="stroke:rgb(0,0,0);stroke-width:0;fill:rgb(255,255,255);" />
 <polygon points="240 579 247 590 253 578 240 579" transform="translate(-27,-31)" style="stroke:rgb(0,0,0);stroke-width:0;fill:rgb(255,255,255);" />
 <line transform="translate(-27,-31)" style="stroke:rgb(255,0,0);stroke-width:0.9;fill:none;" y1="698" y2="686" x1="700" x2="705" />
 <line transform="translate(-27,-31)" style="stroke:rgb(255,0,0);stroke-width:0.9;fill:none;" y1="766" y2="776" x1="694" x2="690" />
 <line transform="translate(-27,-31)" style="stroke:rgb(255,0,0);stroke-width:0.9;fill:none;" y1="686" y2="692" x1="705" x2="694" />
 <line transform="translate(-27,-31)" style="stroke:rgb(255,0,0);stroke-width:0.9;fill:none;" y1="632" y2="628" x1="690" x2="700" />
 <line transform="translate(-27,-31)" style="stroke:rgb(255,0,0);stroke-width:0.9;fill:none;" y1="760" y2="766" x1="705" x2="694" />
 <line transform="translate(-27,-31)" style="stroke:rgb(255,0,0);stroke-width:0.9;fill:none;" y1="586" y2="576" x1="80" x2="88" />
 <line transform="translate(-27,-31)" style="stroke:rgb(255,0,0);stroke-width:0.9;fill:none;" y1="771" y2="760" x1="700" x2="705" />
 <line transform="translate(-27,-31)" style="stroke:rgb(255,0,0);stroke-width:0.9;fill:none;" y1="776" y2="771" x1="690" x2="700" />
 <line transform="translate(-27,-31)" style="stroke:rgb(255,0,0);stroke-width:0.9;fill:none;" y1="692" y2="702" x1="694" x2="690" />
 <line transform="translate(-27,-31)" style="stroke:rgb(255,0,0);stroke-width:0.9;fill:none;" y1="622" y2="632" x1="694" x2="690" />
 <line transform="translate(-27,-31)" style="stroke:rgb(255,0,0);stroke-width:0.9;fill:none;" y1="586" y2="588" x1="80" x2="93" />
 <line transform="translate(-27,-31)" style="stroke:rgb(255,0,0);stroke-width:0.9;fill:none;" y1="240" y2="247" x1="379" x2="388" />
 <line transform="translate(-27,-31)" style="stroke:rgb(255,0,0);stroke-width:0.9;fill:none;" y1="246" y2="239" x1="400" x2="390" />
 <line transform="translate(-27,-31)" style="stroke:rgb(255,0,0);stroke-width:0.9;fill:none;" y1="247" y2="246" x1="388" x2="400" />
 <line transform="translate(-27,-31)" style="stroke:rgb(255,0,0);stroke-width:0.9;fill:none;" y1="239" y2="240" x1="390" x2="379" />
 <line transform="translate(-27,-31)" style="stroke:rgb(255,0,0);stroke-width:0.9;fill:none;" y1="330" y2="339" x1="379" x2="386" />
 <line transform="translate(-27,-31)" style="stroke:rgb(255,0,0);stroke-width:0.9;fill:none;" y1="341" y2="331" x1="398" x2="390" />
 <line transform="translate(-27,-31)" style="stroke:rgb(255,0,0);stroke-width:0.9;fill:none;" y1="339" y2="341" x1="386" x2="398" />
 <line transform="translate(-27,-31)" style="stroke:rgb(255,0,0);stroke-width:0.9;fill:none;" y1="331" y2="330" x1="390" x2="379" />
 <line transform="translate(-27,-31)" style="stroke:rgb(255,0,0);stroke-width:0.9;fill:none;" y1="89" y2="99" x1="210" x2="206" />
 <line transform="translate(-27,-31)" style="stroke:rgb(255,0,0);stroke-width:0.9;fill:none;" y1="111" y2="99" x1="210" x2="214" />
 <line transform="translate(-27,-31)" style="stroke:rgb(255,0,0);stroke-width:0.9;fill:none;" y1="99" y2="111" x1="206" x2="210" />
 <line transform="translate(-27,-31)" style="stroke:rgb(255,0,0);stroke-width:0.9;fill:none;" y1="99" y2="89" x1="214" x2="210" />
 <line transform="translate(-27,-31)" style="stroke:rgb(255,0,0);stroke-width:0.9;fill:none;" y1="270" y2="280" x1="1200" x2="1196" />
 <line transform="translate(-27,-31)" style="stroke:rgb(255,0,0);stroke-width:0.9;fill:none;" y1="292" y2="280" x1="1200" x2="1204" />
 <line transform="translate(-27,-31)" style="stroke:rgb(255,0,0);stroke-width:0.9;fill:none;" y1="280" y2="292" x1="1196" x2="1200" />
 <line transform="translate(-27,-31)" style="stroke:rgb(255,0,0);stroke-width:0.9;fill:none;" y1="280" y2="270" x1="1204" x2="1200" />
 <line transform="translate(-27,-31)" style="stroke:rgb(255,0,0);stroke-width:0.9;fill:none;" y1="552" y2="549" x1="660" x2="670" />
 <line transform="translate(-27,-31)" style="stroke:rgb(255,0,0);stroke-width:0.9;fill:none;" y1="538" y2="542" x1="677" x2="665" />
 <line transform="translate(-27,-31)" style="stroke:rgb(255,0,0);stroke-width:0.9;fill:none;" y1="549" y2="538" x1="670" x2="677" />
 <line transform="translate(-27,-31)" style="stroke:rgb(255,0,0);stroke-width:0.9;fill:none;" y1="542" y2="552" x1="665" x2="660" />
 <line transform="translate(-27,-31)" style="stroke:rgb(255,0,0);stroke-width:0.9;fill:none;" y1="460" y2="472" x1="115" x2="120" />
 <line transform="translate(-27,-31)" style="stroke:rgb(255,0,0);stroke-width:0.9;fill:none;" y1="472" y2="462" x1="120" x2="128" />
 <line transform="translate(-27,-31)" style="stroke:rgb(255,0,0);stroke-width:0.9;fill:none;" y1="460" y2="462" x1="115" x2="128" />
 <line transform="translate(-27,-31)" style="stroke:rgb(255,0,0);stroke-width:0.9;fill:none;" y1="540" y2="544" x1="134" x2="146" />
 <line transform="translate(-27,-31)" style="stroke:rgb(255,0,0);stroke-width:0.9;fill:none;" y1="544" y2="531" x1="146" x2="144" />
 <line transform="translate(-27,-31)" style="stroke:rgb(255,0,0);stroke-width:0.9;fill:none;" y1="540" y2="531" x1="134" x2="144" />
 <line transform="translate(-27,-31)" style="stroke:rgb(255,0,0);stroke-width:0.9;fill:none;" y1="510" y2="516" x1="443" x2="455" />
 <line transform="translate(-27,-31)" style="stroke:rgb(255,0,0);stroke-width:0.9;fill:none;" y1="516" y2="503" x1="455" x2="454" />
 <line transform="translate(-27,-31)" style="stroke:rgb(255,0,0);stroke-width:0.9;fill:none;" y1="510" y2="503" x1="443" x2="454" />
 <line transform="translate(-27,-31)" style="stroke:rgb(255,0,0);stroke-width:0.9;fill:none;" y1="550" y2="559" x1="443" x2="453" />
 <line transform="translate(-27,-31)" style="stroke:rgb(255,0,0);stroke-width:0.9;fill:none;" y1="559" y2="546" x1="453" x2="455" />
 <line transform="translate(-27,-31)" style="stroke:rgb(255,0,0);stroke-width:0.9;fill:none;" y1="550" y2="546" x1="443" x2="455" />
 <line transform="translate(-27,-31)" style="stroke:rgb(255,0,0);stroke-width:0.9;fill:none;" y1="472" y2="469" x1="670" x2="681" />
 <line transform="translate(-27,-31)" style="stroke:rgb(255,0,0);stroke-width:0.9;fill:none;" y1="459" y2="463" x1="688" x2="676" />
 <line transform="translate(-27,-31)" style="stroke:rgb(255,0,0);stroke-width:0.9;fill:none;" y1="469" y2="459" x1="681" x2="688" />
 <line transform="translate(-27,-31)" style="stroke:rgb(255,0,0);stroke-width:0.9;fill:none;" y1="463" y2="472" x1="676" x2="670" />
 <line transform="translate(-27,-31)" style="stroke:rgb(255,0,0);stroke-width:0.9;fill:none;" y1="579" y2="588" x1="380" x2="390" />
 <line transform="translate(-27,-31)" style="stroke:rgb(255,0,0);stroke-width:0.9;fill:none;" y1="588" y2="575" x1="390" x2="392" />
 <line transform="translate(-27,-31)" style="stroke:rgb(255,0,0);stroke-width:0.9;fill:none;" y1="579" y2="575" x1="380" x2="392" />
 <line transform="translate(-27,-31)" style="stroke:rgb(255,0,0);stroke-width:0.9;fill:none;" y1="579" y2="589" x1="310" x2="318" />
 <line transform="translate(-27,-31)" style="stroke:rgb(255,0,0);stroke-width:0.9;fill:none;" y1="589" y2="577" x1="318" x2="323" />
 <line transform="translate(-27,-31)" style="stroke:rgb(255,0,0);stroke-width:0.9;fill:none;" y1="579" y2="577" x1="310" x2="323" />
 <line transform="translate(-27,-31)" style="stroke:rgb(255,0,0);stroke-width:0.9;fill:none;" y1="579" y2="590" x1="240" x2="247" />
 <line transform="translate(-27,-31)" style="stroke:rgb(255,0,0);stroke-width:0.9;fill:none;" y1="590" y2="578" x1="247" x2="253" />
 <line transform="translate(-27,-31)" style="stroke:rgb(255,0,0);stroke-width:0.9;fill:none;" y1="579" y2="578" x1="240" x2="253" />
 <line transform="translate(-27,-31)" style="stroke:rgb(255,0,0);stroke-width:0.9;fill:none;" y1="628" y2="616" x1="700" x2="706" />
 <line transform="translate(-27,-31)" style="stroke:rgb(255,0,0);stroke-width:0.9;fill:none;" y1="702" y2="698" x1="690" x2="700" />
 <line transform="translate(-27,-31)" style="stroke:rgb(255,0,0);stroke-width:0.9;fill:none;" y1="616" y2="622" x1="706" x2="694" />
 <rect width="100" x="30" y="586" height="28" transform="translate(-27,-31)" style="stroke:rgb(255,0,0);stroke-width:0.9;fill:rgb(255,255,192);" />
 <text x="80" y="598" transform="translate(-27,-31)" style="fill:rgb(0,0,0);stroke-width:0;font-size:10;font-style:normal;font-weight:700;font-family:Sans Serif;" text-anchor="middle" >imageGridPanel</text>
 <line transform="translate(-27,-31)" style="stroke:rgb(255,0,0);stroke-width:0.9;fill:rgb(255,255,192);" y1="600" y2="600" x1="30" x2="129" />
 <line transform="translate(-27,-31)" style="stroke:rgb(255,0,0);stroke-width:0.9;fill:rgb(255,255,192);" y1="607" y2="607" x1="30" x2="129" />
 <rect width="148" x="136" y="31" height="58" transform="translate(-27,-31)" style="stroke:rgb(255,0,0);stroke-width:0.9;fill:rgb(255,255,192);" />
 <text x="210" y="43" transform="translate(-27,-31)" style="fill:rgb(0,0,0);stroke-width:0;font-size:10;font-style:normal;font-weight:700;font-family:Sans Serif;" text-anchor="middle" >bijutsukan</text>
 <line transform="translate(-27,-31)" style="stroke:rgb(255,0,0);stroke-width:0.9;fill:rgb(255,255,192);" y1="45" y2="45" x1="136" x2="283" />
 <line transform="translate(-27,-31)" style="stroke:rgb(255,0,0);stroke-width:0.9;fill:rgb(255,255,192);" y1="52" y2="52" x1="136" x2="283" />
 <text x="141" y="64" transform="translate(-27,-31)" style="fill:rgb(0,0,0);stroke-width:0;font-size:10;font-style:normal;font-weight:400;font-family:Sans Serif;" >+ OnInit() : bool</text>
 <rect width="229" x="566" y="185" height="210" transform="translate(-27,-31)" style="stroke:rgb(255,0,0);stroke-width:0.9;fill:rgb(255,255,192);" />
 <text x="680" y="197" transform="translate(-27,-31)" style="fill:rgb(0,0,0);stroke-width:0;font-size:10;font-style:normal;font-weight:700;font-family:Sans Serif;" text-anchor="middle" >mainPanel</text>
 <line transform="translate(-27,-31)" style="stroke:rgb(255,0,0);stroke-width:0.9;fill:rgb(255,255,192);" y1="199" y2="199" x1="566" x2="794" />
 <text x="571" y="211" transform="translate(-27,-31)" style="fill:rgb(0,0,0);stroke-width:0;font-size:10;font-style:normal;font-weight:400;font-family:Sans Serif;" >- mainCaption : wxStaticText</text>
 <text x="571" y="225" transform="translate(-27,-31)" style="fill:rgb(0,0,0);stroke-width:0;font-size:10;font-style:normal;font-weight:400;font-family:Sans Serif;" >- findDescription : wxStaticText</text>
 <text x="571" y="239" transform="translate(-27,-31)" style="fill:rgb(0,0,0);stroke-width:0;font-size:10;font-style:normal;font-weight:400;font-family:Sans Serif;" >- listDescription : wxStaticText</text>
 <text x="571" y="253" transform="translate(-27,-31)" style="fill:rgb(0,0,0);stroke-width:0;font-size:10;font-style:normal;font-weight:400;font-family:Sans Serif;" >- inputDescription : wxStaticText</text>
 <text x="571" y="267" transform="translate(-27,-31)" style="fill:rgb(0,0,0);stroke-width:0;font-size:10;font-style:normal;font-weight:400;font-family:Sans Serif;" >- inputWizard : wxButton</text>
 <text x="571" y="281" transform="translate(-27,-31)" style="fill:rgb(0,0,0);stroke-width:0;font-size:10;font-style:normal;font-weight:400;font-family:Sans Serif;" >- inputPath : wxButton</text>
 <text x="571" y="295" transform="translate(-27,-31)" style="fill:rgb(0,0,0);stroke-width:0;font-size:10;font-style:normal;font-weight:400;font-family:Sans Serif;" >- inputDir : wxButton</text>
 <text x="571" y="309" transform="translate(-27,-31)" style="fill:rgb(0,0,0);stroke-width:0;font-size:10;font-style:normal;font-weight:400;font-family:Sans Serif;" >- fileList : wxButton</text>
 <text x="571" y="323" transform="translate(-27,-31)" style="fill:rgb(0,0,0);stroke-width:0;font-size:10;font-style:normal;font-weight:400;font-family:Sans Serif;" >- labelList : wxButton</text>
 <text x="571" y="337" transform="translate(-27,-31)" style="fill:rgb(0,0,0);stroke-width:0;font-size:10;font-style:normal;font-weight:400;font-family:Sans Serif;" >- personList : wxButton</text>
 <text x="571" y="351" transform="translate(-27,-31)" style="fill:rgb(0,0,0);stroke-width:0;font-size:10;font-style:normal;font-weight:400;font-family:Sans Serif;" >- positionList : wxButton</text>
 <text x="571" y="365" transform="translate(-27,-31)" style="fill:rgb(0,0,0);stroke-width:0;font-size:10;font-style:normal;font-weight:400;font-family:Sans Serif;" >- findBy : wxButton</text>
 <line transform="translate(-27,-31)" style="stroke:rgb(255,0,0);stroke-width:0.9;fill:rgb(255,255,192);" y1="367" y2="367" x1="566" x2="794" />
 <text x="571" y="379" transform="translate(-27,-31)" style="fill:rgb(0,0,0);stroke-width:0;font-size:10;font-style:normal;font-weight:400;font-family:Sans Serif;" >+ mainPanel(parent : wxWindow)</text>
 <text x="571" y="393" transform="translate(-27,-31)" style="fill:rgb(0,0,0);stroke-width:0;font-size:10;font-style:normal;font-weight:400;font-family:Sans Serif;" >+ eventHandler(event : wxCommandEvent)</text>
 <rect width="338" x="41" y="145" height="270" transform="translate(-27,-31)" style="stroke:rgb(255,0,0);stroke-width:0.9;fill:rgb(255,255,192);" />
 <text x="210" y="157" transform="translate(-27,-31)" style="fill:rgb(0,0,0);stroke-width:0;font-size:10;font-style:normal;font-weight:700;font-family:Sans Serif;" text-anchor="middle" >mainFrame</text>
 <line transform="translate(-27,-31)" style="stroke:rgb(255,0,0);stroke-width:0.9;fill:rgb(255,255,192);" y1="159" y2="159" x1="41" x2="378" />
 <text x="46" y="171" transform="translate(-27,-31)" style="fill:rgb(0,0,0);stroke-width:0;font-size:10;font-style:normal;font-weight:400;font-family:Sans Serif;" >- currentEvent : int</text>
 <text x="46" y="185" transform="translate(-27,-31)" style="fill:rgb(0,0,0);stroke-width:0;font-size:10;font-style:normal;font-weight:400;font-family:Sans Serif;" >- dbIsOpen : bool</text>
 <text x="46" y="199" transform="translate(-27,-31)" style="fill:rgb(0,0,0);stroke-width:0;font-size:10;font-style:normal;font-weight:400;font-family:Sans Serif;" >- dbFileString : wxString</text>
 <text x="46" y="213" transform="translate(-27,-31)" style="fill:rgb(0,0,0);stroke-width:0;font-size:10;font-style:normal;font-weight:400;font-family:Sans Serif;" >- dbFileName : wxFileName</text>
 <text x="46" y="227" transform="translate(-27,-31)" style="fill:rgb(0,0,0);stroke-width:0;font-size:10;font-style:normal;font-weight:400;font-family:Sans Serif;" >- myAboutPanel : aboutPanel</text>
 <text x="46" y="241" transform="translate(-27,-31)" style="fill:rgb(0,0,0);stroke-width:0;font-size:10;font-style:normal;font-weight:400;font-family:Sans Serif;" >- menuBar : wxMenuBar</text>
 <text x="46" y="255" transform="translate(-27,-31)" style="fill:rgb(0,0,0);stroke-width:0;font-size:10;font-style:normal;font-weight:400;font-family:Sans Serif;" >- fileMenu : wxMenu</text>
 <text x="46" y="269" transform="translate(-27,-31)" style="fill:rgb(0,0,0);stroke-width:0;font-size:10;font-style:normal;font-weight:400;font-family:Sans Serif;" >- findMenu : wxMenu</text>
 <text x="46" y="283" transform="translate(-27,-31)" style="fill:rgb(0,0,0);stroke-width:0;font-size:10;font-style:normal;font-weight:400;font-family:Sans Serif;" >- findBySubMenu : wxMenu</text>
 <text x="46" y="297" transform="translate(-27,-31)" style="fill:rgb(0,0,0);stroke-width:0;font-size:10;font-style:normal;font-weight:400;font-family:Sans Serif;" >- inputMenu : wxMenu</text>
 <text x="46" y="311" transform="translate(-27,-31)" style="fill:rgb(0,0,0);stroke-width:0;font-size:10;font-style:normal;font-weight:400;font-family:Sans Serif;" >- categoryMenu : wxMenu</text>
 <text x="46" y="325" transform="translate(-27,-31)" style="fill:rgb(0,0,0);stroke-width:0;font-size:10;font-style:normal;font-weight:400;font-family:Sans Serif;" >- optionsMenu : wxMenu</text>
 <line transform="translate(-27,-31)" style="stroke:rgb(255,0,0);stroke-width:0.9;fill:rgb(255,255,192);" y1="327" y2="327" x1="41" x2="378" />
 <text x="46" y="339" transform="translate(-27,-31)" style="fill:rgb(0,0,0);stroke-width:0;font-size:10;font-style:normal;font-weight:400;font-family:Sans Serif;" >+ mainFrame(title : wxString, pos : wxPoint, size : wxSize)</text>
 <text x="46" y="353" transform="translate(-27,-31)" style="fill:rgb(0,0,0);stroke-width:0;font-size:10;font-style:normal;font-weight:400;font-family:Sans Serif;" >+ onQuit(event : wxCommandEvent)</text>
 <text x="46" y="367" transform="translate(-27,-31)" style="fill:rgb(0,0,0);stroke-width:0;font-size:10;font-style:normal;font-weight:400;font-family:Sans Serif;" >+ eventHandler(event : wxCommandEvent)</text>
 <text x="46" y="381" transform="translate(-27,-31)" style="fill:rgb(0,0,0);stroke-width:0;font-size:10;font-style:normal;font-weight:400;font-family:Sans Serif;" >- makeMenu()</text>
 <text x="46" y="395" transform="translate(-27,-31)" style="fill:rgb(0,0,0);stroke-width:0;font-size:10;font-style:normal;font-weight:400;font-family:Sans Serif;" >- deletePanel()</text>
 <rect width="265" x="178" y="481" height="98" transform="translate(-27,-31)" style="stroke:rgb(255,0,0);stroke-width:0.9;fill:rgb(255,255,192);" />
 <text x="310" y="493" transform="translate(-27,-31)" style="fill:rgb(0,0,0);stroke-width:0;font-size:10;font-style:normal;font-weight:700;font-family:Sans Serif;" text-anchor="middle" >genericListPanel</text>
 <line transform="translate(-27,-31)" style="stroke:rgb(255,0,0);stroke-width:0.9;fill:rgb(255,255,192);" y1="495" y2="495" x1="178" x2="442" />
 <text x="183" y="507" transform="translate(-27,-31)" style="fill:rgb(0,0,0);stroke-width:0;font-size:10;font-style:normal;font-weight:400;font-family:Sans Serif;" >- editButton : wxButton</text>
 <text x="183" y="521" transform="translate(-27,-31)" style="fill:rgb(0,0,0);stroke-width:0;font-size:10;font-style:normal;font-weight:400;font-family:Sans Serif;" >- deleteButton : wxButton</text>
 <text x="183" y="535" transform="translate(-27,-31)" style="fill:rgb(0,0,0);stroke-width:0;font-size:10;font-style:normal;font-weight:400;font-family:Sans Serif;" >- viewButton : wxButton</text>
 <text x="183" y="549" transform="translate(-27,-31)" style="fill:rgb(0,0,0);stroke-width:0;font-size:10;font-style:normal;font-weight:400;font-family:Sans Serif;" >- setMultipleAttributeButton : wxButton</text>
 <line transform="translate(-27,-31)" style="stroke:rgb(255,0,0);stroke-width:0.9;fill:rgb(255,255,192);" y1="551" y2="551" x1="178" x2="442" />
 <text x="183" y="563" transform="translate(-27,-31)" style="fill:rgb(0,0,0);stroke-width:0;font-size:10;font-style:normal;font-weight:400;font-family:Sans Serif;" >+ gridEventHandler(event : wxGridEvent)</text>
 <text x="183" y="577" transform="translate(-27,-31)" style="fill:rgb(0,0,0);stroke-width:0;font-size:10;font-style:normal;font-weight:400;font-family:Sans Serif;" >+ genericEventHandler(event : wxCommandEvent)</text>
 <rect width="242" x="1079" y="361" height="479" transform="translate(-27,-31)" style="stroke:rgb(255,0,0);stroke-width:0.9;fill:rgb(255,255,192);" />
 <text x="1200" y="373" transform="translate(-27,-31)" style="fill:rgb(0,0,0);stroke-width:0;font-size:10;font-style:normal;font-weight:700;font-family:Sans Serif;" text-anchor="middle" >imageObject</text>
 <line transform="translate(-27,-31)" style="stroke:rgb(255,0,0);stroke-width:0.9;fill:rgb(255,255,192);" y1="375" y2="375" x1="1079" x2="1320" />
 <text x="1084" y="387" transform="translate(-27,-31)" style="fill:rgb(0,0,0);stroke-width:0;font-size:10;font-style:normal;font-weight:400;font-family:Sans Serif;" >- filePath : wxString</text>
 <text x="1084" y="401" transform="translate(-27,-31)" style="fill:rgb(0,0,0);stroke-width:0;font-size:10;font-style:normal;font-weight:400;font-family:Sans Serif;" >- fileTitle : wxString</text>
 <text x="1084" y="415" transform="translate(-27,-31)" style="fill:rgb(0,0,0);stroke-width:0;font-size:10;font-style:normal;font-weight:400;font-family:Sans Serif;" >- fileDescription : wxString</text>
 <text x="1084" y="429" transform="translate(-27,-31)" style="fill:rgb(0,0,0);stroke-width:0;font-size:10;font-style:normal;font-weight:400;font-family:Sans Serif;" >- fileCategory : wxString</text>
 <text x="1084" y="443" transform="translate(-27,-31)" style="fill:rgb(0,0,0);stroke-width:0;font-size:10;font-style:normal;font-weight:400;font-family:Sans Serif;" >- fileLabels : wxArrayString</text>
 <text x="1084" y="457" transform="translate(-27,-31)" style="fill:rgb(0,0,0);stroke-width:0;font-size:10;font-style:normal;font-weight:400;font-family:Sans Serif;" >- filePersons : wxArrayString</text>
 <text x="1084" y="471" transform="translate(-27,-31)" style="fill:rgb(0,0,0);stroke-width:0;font-size:10;font-style:normal;font-weight:400;font-family:Sans Serif;" >- fileObjects : wxArrayString</text>
 <text x="1084" y="485" transform="translate(-27,-31)" style="fill:rgb(0,0,0);stroke-width:0;font-size:10;font-style:normal;font-weight:400;font-family:Sans Serif;" >- fileLocations : wxArrayString</text>
 <text x="1084" y="499" transform="translate(-27,-31)" style="fill:rgb(0,0,0);stroke-width:0;font-size:10;font-style:normal;font-weight:400;font-family:Sans Serif;" >- filePositions : wxArrayString</text>
 <line transform="translate(-27,-31)" style="stroke:rgb(255,0,0);stroke-width:0.9;fill:rgb(255,255,192);" y1="501" y2="501" x1="1079" x2="1320" />
 <text x="1084" y="513" transform="translate(-27,-31)" style="fill:rgb(0,0,0);stroke-width:0;font-size:10;font-style:normal;font-weight:400;font-family:Sans Serif;" >+ imageObject(path : wxString)</text>
 <text x="1084" y="527" transform="translate(-27,-31)" style="fill:rgb(0,0,0);stroke-width:0;font-size:10;font-style:normal;font-weight:400;font-family:Sans Serif;" >+ getFilePath() : wxString</text>
 <text x="1084" y="541" transform="translate(-27,-31)" style="fill:rgb(0,0,0);stroke-width:0;font-size:10;font-style:normal;font-weight:400;font-family:Sans Serif;" >+ getFileTitle() : wxString</text>
 <text x="1084" y="555" transform="translate(-27,-31)" style="fill:rgb(0,0,0);stroke-width:0;font-size:10;font-style:normal;font-weight:400;font-family:Sans Serif;" >+ getFileDescription() : wxString</text>
 <text x="1084" y="569" transform="translate(-27,-31)" style="fill:rgb(0,0,0);stroke-width:0;font-size:10;font-style:normal;font-weight:400;font-family:Sans Serif;" >+ getCategory() : wxString</text>
 <text x="1084" y="583" transform="translate(-27,-31)" style="fill:rgb(0,0,0);stroke-width:0;font-size:10;font-style:normal;font-weight:400;font-family:Sans Serif;" >+ setFilePath(nfilePath : wxString)</text>
 <text x="1084" y="597" transform="translate(-27,-31)" style="fill:rgb(0,0,0);stroke-width:0;font-size:10;font-style:normal;font-weight:400;font-family:Sans Serif;" >+ setFileTitle(nfileTitle : wxString)</text>
 <text x="1084" y="611" transform="translate(-27,-31)" style="fill:rgb(0,0,0);stroke-width:0;font-size:10;font-style:normal;font-weight:400;font-family:Sans Serif;" >+ setFileDescription(nfileDescription : wxString)</text>
 <text x="1084" y="625" transform="translate(-27,-31)" style="fill:rgb(0,0,0);stroke-width:0;font-size:10;font-style:normal;font-weight:400;font-family:Sans Serif;" >+ setFileCategory(nfileCategory : wxString)</text>
 <text x="1084" y="639" transform="translate(-27,-31)" style="fill:rgb(0,0,0);stroke-width:0;font-size:10;font-style:normal;font-weight:400;font-family:Sans Serif;" >+ getFileLabels() : wxArrayString</text>
 <text x="1084" y="653" transform="translate(-27,-31)" style="fill:rgb(0,0,0);stroke-width:0;font-size:10;font-style:normal;font-weight:400;font-family:Sans Serif;" >+ getFilePersons() : wxArrayString</text>
 <text x="1084" y="667" transform="translate(-27,-31)" style="fill:rgb(0,0,0);stroke-width:0;font-size:10;font-style:normal;font-weight:400;font-family:Sans Serif;" >+ getFileObjects() : wxArrayString</text>
 <text x="1084" y="681" transform="translate(-27,-31)" style="fill:rgb(0,0,0);stroke-width:0;font-size:10;font-style:normal;font-weight:400;font-family:Sans Serif;" >+ getFileLocations() : wxArrayString</text>
 <text x="1084" y="695" transform="translate(-27,-31)" style="fill:rgb(0,0,0);stroke-width:0;font-size:10;font-style:normal;font-weight:400;font-family:Sans Serif;" >+ getFilePositions() : wxArrayString</text>
 <text x="1084" y="709" transform="translate(-27,-31)" style="fill:rgb(0,0,0);stroke-width:0;font-size:10;font-style:normal;font-weight:400;font-family:Sans Serif;" >+ addFileLables(nfileLabel : wxString)</text>
 <text x="1084" y="723" transform="translate(-27,-31)" style="fill:rgb(0,0,0);stroke-width:0;font-size:10;font-style:normal;font-weight:400;font-family:Sans Serif;" >+ addFilePersons(nfilePerson : wxString)</text>
 <text x="1084" y="737" transform="translate(-27,-31)" style="fill:rgb(0,0,0);stroke-width:0;font-size:10;font-style:normal;font-weight:400;font-family:Sans Serif;" >+ addFileObjects(nfileObject : wxString)</text>
 <text x="1084" y="751" transform="translate(-27,-31)" style="fill:rgb(0,0,0);stroke-width:0;font-size:10;font-style:normal;font-weight:400;font-family:Sans Serif;" >+ addFileLocations(nfileLocation : wxString)</text>
 <text x="1084" y="765" transform="translate(-27,-31)" style="fill:rgb(0,0,0);stroke-width:0;font-size:10;font-style:normal;font-weight:400;font-family:Sans Serif;" >+ addFilePositions(nfilePosition : wxString)</text>
 <text x="1084" y="779" transform="translate(-27,-31)" style="fill:rgb(0,0,0);stroke-width:0;font-size:10;font-style:normal;font-weight:400;font-family:Sans Serif;" >+ delFileLabels(nfileLabel : wxString)</text>
 <text x="1084" y="793" transform="translate(-27,-31)" style="fill:rgb(0,0,0);stroke-width:0;font-size:10;font-style:normal;font-weight:400;font-family:Sans Serif;" >+ delFilePersons(nfilePerson : wxString)</text>
 <text x="1084" y="807" transform="translate(-27,-31)" style="fill:rgb(0,0,0);stroke-width:0;font-size:10;font-style:normal;font-weight:400;font-family:Sans Serif;" >+ delFileObjects(nfileObject : wxString)</text>
 <text x="1084" y="821" transform="translate(-27,-31)" style="fill:rgb(0,0,0);stroke-width:0;font-size:10;font-style:normal;font-weight:400;font-family:Sans Serif;" >+ delFileLocations(nfileLocation : wxString)</text>
 <text x="1084" y="835" transform="translate(-27,-31)" style="fill:rgb(0,0,0);stroke-width:0;font-size:10;font-style:normal;font-weight:400;font-family:Sans Serif;" >+ delFilePositions(nfilePosition : wxString)</text>
 <rect width="162" x="579" y="702" height="56" transform="translate(-27,-31)" style="stroke:rgb(255,0,0);stroke-width:0.9;fill:rgb(255,255,192);" />
 <text x="660" y="714" transform="translate(-27,-31)" style="fill:rgb(0,0,0);stroke-width:0;font-size:10;font-style:normal;font-weight:700;font-family:Sans Serif;" text-anchor="middle" >objectListPanel</text>
 <line transform="translate(-27,-31)" style="stroke:rgb(255,0,0);stroke-width:0.9;fill:rgb(255,255,192);" y1="716" y2="716" x1="579" x2="740" />
 <text x="584" y="728" transform="translate(-27,-31)" style="fill:rgb(0,0,0);stroke-width:0;font-size:10;font-style:normal;font-weight:400;font-family:Sans Serif;" >- myObjectList : wxArrayString</text>
 <text x="584" y="742" transform="translate(-27,-31)" style="fill:rgb(0,0,0);stroke-width:0;font-size:10;font-style:normal;font-weight:400;font-family:Sans Serif;" >- objectSelector : wxTextCtrl</text>
 <line transform="translate(-27,-31)" style="stroke:rgb(255,0,0);stroke-width:0.9;fill:rgb(255,255,192);" y1="744" y2="744" x1="579" x2="740" />
 <text x="584" y="756" transform="translate(-27,-31)" style="fill:rgb(0,0,0);stroke-width:0;font-size:10;font-style:normal;font-weight:400;font-family:Sans Serif;" >+ objectListPanel()</text>
 <rect width="165" x="578" y="632" height="56" transform="translate(-27,-31)" style="stroke:rgb(255,0,0);stroke-width:0.9;fill:rgb(255,255,192);" />
 <text x="660" y="644" transform="translate(-27,-31)" style="fill:rgb(0,0,0);stroke-width:0;font-size:10;font-style:normal;font-weight:700;font-family:Sans Serif;" text-anchor="middle" >personListPanel</text>
 <line transform="translate(-27,-31)" style="stroke:rgb(255,0,0);stroke-width:0.9;fill:rgb(255,255,192);" y1="646" y2="646" x1="578" x2="742" />
 <text x="583" y="658" transform="translate(-27,-31)" style="fill:rgb(0,0,0);stroke-width:0;font-size:10;font-style:normal;font-weight:400;font-family:Sans Serif;" >- myPersonList : wxArrayString</text>
 <text x="583" y="672" transform="translate(-27,-31)" style="fill:rgb(0,0,0);stroke-width:0;font-size:10;font-style:normal;font-weight:400;font-family:Sans Serif;" >- personSelector : wxTextCtrl</text>
 <line transform="translate(-27,-31)" style="stroke:rgb(255,0,0);stroke-width:0.9;fill:rgb(255,255,192);" y1="674" y2="674" x1="578" x2="742" />
 <text x="583" y="686" transform="translate(-27,-31)" style="fill:rgb(0,0,0);stroke-width:0;font-size:10;font-style:normal;font-weight:400;font-family:Sans Serif;" >+ personListPanel()</text>
 <rect width="169" x="576" y="776" height="49" transform="translate(-27,-31)" style="stroke:rgb(255,0,0);stroke-width:0.9;fill:rgb(255,255,192);" />
 <text x="660" y="788" transform="translate(-27,-31)" style="fill:rgb(0,0,0);stroke-width:0;font-size:10;font-style:normal;font-weight:700;font-family:Sans Serif;" text-anchor="middle" >positionListPanel</text>
 <line transform="translate(-27,-31)" style="stroke:rgb(255,0,0);stroke-width:0.9;fill:rgb(255,255,192);" y1="790" y2="790" x1="576" x2="744" />
 <text x="581" y="802" transform="translate(-27,-31)" style="fill:rgb(0,0,0);stroke-width:0;font-size:10;font-style:normal;font-weight:400;font-family:Sans Serif;" >- myPositionList : wxArrayString</text>
 <text x="581" y="816" transform="translate(-27,-31)" style="fill:rgb(0,0,0);stroke-width:0;font-size:10;font-style:normal;font-weight:400;font-family:Sans Serif;" >- positionSelector : wxTextCtrl</text>
 <line transform="translate(-27,-31)" style="stroke:rgb(255,0,0);stroke-width:0.9;fill:rgb(255,255,192);" y1="818" y2="818" x1="576" x2="744" />
 <rect width="167" x="577" y="552" height="56" transform="translate(-27,-31)" style="stroke:rgb(255,0,0);stroke-width:0.9;fill:rgb(255,255,192);" />
 <text x="660" y="564" transform="translate(-27,-31)" style="fill:rgb(0,0,0);stroke-width:0;font-size:10;font-style:normal;font-weight:700;font-family:Sans Serif;" text-anchor="middle" >labeListPanel</text>
 <line transform="translate(-27,-31)" style="stroke:rgb(255,0,0);stroke-width:0.9;fill:rgb(255,255,192);" y1="566" y2="566" x1="577" x2="743" />
 <text x="582" y="578" transform="translate(-27,-31)" style="fill:rgb(0,0,0);stroke-width:0;font-size:10;font-style:normal;font-weight:400;font-family:Sans Serif;" >- myLabelList : wxArrayString</text>
 <text x="582" y="592" transform="translate(-27,-31)" style="fill:rgb(0,0,0);stroke-width:0;font-size:10;font-style:normal;font-weight:400;font-family:Sans Serif;" >- labelSelector : wxListCtrl</text>
 <line transform="translate(-27,-31)" style="stroke:rgb(255,0,0);stroke-width:0.9;fill:rgb(255,255,192);" y1="594" y2="594" x1="577" x2="743" />
 <text x="582" y="606" transform="translate(-27,-31)" style="fill:rgb(0,0,0);stroke-width:0;font-size:10;font-style:normal;font-weight:400;font-family:Sans Serif;" >+ labeListPanel()</text>
 <rect width="355" x="893" y="130" height="140" transform="translate(-27,-31)" style="stroke:rgb(255,0,0);stroke-width:0.9;fill:rgb(255,255,192);" />
 <text x="1070" y="142" transform="translate(-27,-31)" style="fill:rgb(0,0,0);stroke-width:0;font-size:10;font-style:normal;font-weight:700;font-family:Sans Serif;" text-anchor="middle" >fileIndex</text>
 <line transform="translate(-27,-31)" style="stroke:rgb(255,0,0);stroke-width:0.9;fill:rgb(255,255,192);" y1="144" y2="144" x1="893" x2="1247" />
 <text x="898" y="156" transform="translate(-27,-31)" style="fill:rgb(0,0,0);stroke-width:0;font-size:10;font-style:normal;font-weight:400;font-family:Sans Serif;" >- pathIndex : wxArrayString</text>
 <text x="898" y="170" transform="translate(-27,-31)" style="fill:rgb(0,0,0);stroke-width:0;font-size:10;font-style:normal;font-weight:400;font-family:Sans Serif;" >- imageObjectArray : wxArray</text>
 <line transform="translate(-27,-31)" style="stroke:rgb(255,0,0);stroke-width:0.9;fill:rgb(255,255,192);" y1="172" y2="172" x1="893" x2="1247" />
 <text x="898" y="184" transform="translate(-27,-31)" style="fill:rgb(0,0,0);stroke-width:0;font-size:10;font-style:normal;font-weight:400;font-family:Sans Serif;" >+ fileIndex()</text>
 <text x="898" y="198" transform="translate(-27,-31)" style="fill:rgb(0,0,0);stroke-width:0;font-size:10;font-style:normal;font-weight:400;font-family:Sans Serif;" >+ getPathIndex(value : wxString, caseSensitive : bool) : wxArrayString</text>
 <text x="898" y="212" transform="translate(-27,-31)" style="fill:rgb(0,0,0);stroke-width:0;font-size:10;font-style:normal;font-weight:400;font-family:Sans Serif;" >+ addFile(filePath : wxString)</text>
 <text x="898" y="226" transform="translate(-27,-31)" style="fill:rgb(0,0,0);stroke-width:0;font-size:10;font-style:normal;font-weight:400;font-family:Sans Serif;" >+ delFile(filePath : wxString)</text>
 <text x="898" y="240" transform="translate(-27,-31)" style="fill:rgb(0,0,0);stroke-width:0;font-size:10;font-style:normal;font-weight:400;font-family:Sans Serif;" >+ makeImageObject(filePath : wxString)</text>
 <text x="898" y="254" transform="translate(-27,-31)" style="fill:rgb(0,0,0);stroke-width:0;font-size:10;font-style:normal;font-weight:400;font-family:Sans Serif;" >+ findValue(value : wxString, caseSensitive : bool) : int</text>
 <text x="898" y="268" transform="translate(-27,-31)" style="fill:rgb(0,0,0);stroke-width:0;font-size:10;font-style:normal;font-weight:400;font-family:Sans Serif;" >+ getImageObjects() : wxArray</text>
 <rect width="135" x="583" y="472" height="56" transform="translate(-27,-31)" style="stroke:rgb(255,0,0);stroke-width:0.9;fill:rgb(255,255,192);" />
 <text x="650" y="484" transform="translate(-27,-31)" style="fill:rgb(0,0,0);stroke-width:0;font-size:10;font-style:normal;font-weight:700;font-family:Sans Serif;" text-anchor="middle" >fileListPanel</text>
 <line transform="translate(-27,-31)" style="stroke:rgb(255,0,0);stroke-width:0.9;fill:rgb(255,255,192);" y1="486" y2="486" x1="583" x2="717" />
 <text x="588" y="498" transform="translate(-27,-31)" style="fill:rgb(0,0,0);stroke-width:0;font-size:10;font-style:normal;font-weight:400;font-family:Sans Serif;" >- myFileList : fileIndex</text>
 <text x="588" y="512" transform="translate(-27,-31)" style="fill:rgb(0,0,0);stroke-width:0;font-size:10;font-style:normal;font-weight:400;font-family:Sans Serif;" >- fileSelector : wxTextCtrl</text>
 <line transform="translate(-27,-31)" style="stroke:rgb(255,0,0);stroke-width:0.9;fill:rgb(255,255,192);" y1="514" y2="514" x1="583" x2="717" />
 <text x="588" y="526" transform="translate(-27,-31)" style="fill:rgb(0,0,0);stroke-width:0;font-size:10;font-style:normal;font-weight:400;font-family:Sans Serif;" >+ fileListPanel()</text>
 <rect width="107" x="27" y="526" height="28" transform="translate(-27,-31)" style="stroke:rgb(255,0,0);stroke-width:0.9;fill:rgb(255,255,192);" />
 <text x="80" y="538" transform="translate(-27,-31)" style="fill:rgb(0,0,0);stroke-width:0;font-size:10;font-style:normal;font-weight:700;font-family:Sans Serif;" text-anchor="middle" >specificGridPanel</text>
 <line transform="translate(-27,-31)" style="stroke:rgb(255,0,0);stroke-width:0.9;fill:rgb(255,255,192);" y1="540" y2="540" x1="27" x2="133" />
 <line transform="translate(-27,-31)" style="stroke:rgb(255,0,0);stroke-width:0.9;fill:rgb(255,255,192);" y1="547" y2="547" x1="27" x2="133" />
 <rect width="87" x="28" y="446" height="28" transform="translate(-27,-31)" style="stroke:rgb(255,0,0);stroke-width:0.9;fill:rgb(255,255,192);" />
 <text x="71" y="458" transform="translate(-27,-31)" style="fill:rgb(0,0,0);stroke-width:0;font-size:10;font-style:normal;font-weight:700;font-family:Sans Serif;" text-anchor="middle" >drawingPanel</text>
 <line transform="translate(-27,-31)" style="stroke:rgb(255,0,0);stroke-width:0.9;fill:rgb(255,255,192);" y1="460" y2="460" x1="28" x2="114" />
 <line transform="translate(-27,-31)" style="stroke:rgb(255,0,0);stroke-width:0.9;fill:rgb(255,255,192);" y1="467" y2="467" x1="28" x2="114" />
 <text x="1260" y="325" transform="translate(-27,-31)" style="fill:rgb(50,50,50);stroke-width:0;font-size:10;font-style:normal;font-weight:400;font-family:Sans Serif;" text-anchor="middle" >Collecting imageObjects</text>
 <text x="900" y="285" transform="translate(-27,-31)" style="fill:rgb(50,50,50);stroke-width:0;font-size:10;font-style:normal;font-weight:400;font-family:Sans Serif;" text-anchor="middle" >+myFileIdex</text>
</svg>
