<?xml version="1.0" standalone="no"?>
<!DOCTYPE svg PUBLIC "-//W3C//DTD SVG 20001102//EN" "http://www.w3.org/TR/2000/CR-SVG-20001102/DTD/svg-20001102.dtd">
<svg xmlns="http://www.w3.org/2000/svg" width="1234" x="0" y="0" height="789" id="/store/sources/bijutsukan/bijutsukan/developer/class diagram" >
 <rect width="1234" x="28" y="31" height="789" transform="translate(-28,-31)" style="stroke:rgb(0,0,0);stroke-width:0;fill:rgb(255,255,255);" />
 <line transform="translate(-28,-31)" style="stroke:rgb(255,0,0);stroke-width:0.9;fill:none;" y1="240" y2="290" x1="379" x2="566" />
 <line transform="translate(-28,-31)" style="stroke:rgb(255,0,0);stroke-width:0.9;fill:none;" y1="330" y2="475" x1="379" x2="650" />
 <line transform="translate(-28,-31)" style="stroke:rgb(255,0,0);stroke-width:0.9;fill:none;" y1="89" y2="145" x1="210" x2="210" />
 <line transform="translate(-28,-31)" style="stroke:rgb(255,0,0);stroke-width:0.9;fill:none;" y1="270" y2="341" x1="1160" x2="1120" />
 <line transform="translate(-28,-31)" style="stroke:rgb(255,0,0);stroke-width:0.9;fill:none;" y1="582" y2="270" x1="660" x2="1070" />
 <line transform="translate(-28,-31)" style="stroke:rgb(255,0,0);stroke-width:0.9;fill:none;" y1="510" y2="510" x1="558" x2="443" />
 <line transform="translate(-28,-31)" style="stroke:rgb(255,0,0);stroke-width:0.9;fill:none;" y1="550" y2="570" x1="178" x2="92" />
 <line transform="translate(-28,-31)" style="stroke:rgb(255,0,0);stroke-width:0.9;fill:none;" y1="610" y2="550" x1="577" x2="443" />
 <line transform="translate(-28,-31)" style="stroke:rgb(255,0,0);stroke-width:0.9;fill:none;" y1="475" y2="270" x1="730" x2="980" />
 <line transform="translate(-28,-31)" style="stroke:rgb(255,0,0);stroke-width:0.9;fill:none;" y1="510" y2="474" x1="178" x2="90" />
 <line transform="translate(-28,-31)" style="stroke:rgb(255,0,0);stroke-width:0.9;fill:none;" y1="672" y2="579" x1="660" x2="310" />
 <polygon points="379 240 388 247 400 246 390 239" transform="translate(-28,-31)" style="stroke:rgb(0,0,0);stroke-width:0;fill:rgb(255,255,255);" />
 <polygon points="379 330 386 339 398 340 390 331" transform="translate(-28,-31)" style="stroke:rgb(0,0,0);stroke-width:0;fill:rgb(255,255,255);" />
 <polygon points="210 89 206 99 210 111 214 99" transform="translate(-28,-31)" style="stroke:rgb(0,0,0);stroke-width:0;fill:rgb(255,0,0);" />
 <polygon points="1160 270 1151 277 1149 289 1159 281" transform="translate(-28,-31)" style="stroke:rgb(0,0,0);stroke-width:0;fill:rgb(255,0,0);" />
 <polygon points="443 510 454 517 454 503 443 510" transform="translate(-28,-31)" style="stroke:rgb(0,0,0);stroke-width:0;fill:rgb(255,255,255);" />
 <polygon points="660 582 671 579 678 569 666 572" transform="translate(-28,-31)" style="stroke:rgb(0,0,0);stroke-width:0;fill:rgb(255,0,0);" />
 <polygon points="92 570 104 574 101 561 92 570" transform="translate(-28,-31)" style="stroke:rgb(0,0,0);stroke-width:0;fill:rgb(255,255,255);" />
 <polygon points="443 550 451 561 456 549 443 550" transform="translate(-28,-31)" style="stroke:rgb(0,0,0);stroke-width:0;fill:rgb(255,255,255);" />
 <polygon points="730 475 741 472 747 461 735 465" transform="translate(-28,-31)" style="stroke:rgb(0,0,0);stroke-width:0;fill:rgb(255,0,0);" />
 <polygon points="90 474 98 484 103 472 90 474" transform="translate(-28,-31)" style="stroke:rgb(0,0,0);stroke-width:0;fill:rgb(255,255,255);" />
 <polygon points="310 579 319 588 323 576 310 579" transform="translate(-28,-31)" style="stroke:rgb(0,0,0);stroke-width:0;fill:rgb(255,255,255);" />
 <line transform="translate(-28,-31)" style="stroke:rgb(255,0,0);stroke-width:0.9;fill:none;" y1="240" y2="247" x1="379" x2="388" />
 <line transform="translate(-28,-31)" style="stroke:rgb(255,0,0);stroke-width:0.9;fill:none;" y1="246" y2="239" x1="400" x2="390" />
 <line transform="translate(-28,-31)" style="stroke:rgb(255,0,0);stroke-width:0.9;fill:none;" y1="247" y2="246" x1="388" x2="400" />
 <line transform="translate(-28,-31)" style="stroke:rgb(255,0,0);stroke-width:0.9;fill:none;" y1="239" y2="240" x1="390" x2="379" />
 <line transform="translate(-28,-31)" style="stroke:rgb(255,0,0);stroke-width:0.9;fill:none;" y1="330" y2="339" x1="379" x2="386" />
 <line transform="translate(-28,-31)" style="stroke:rgb(255,0,0);stroke-width:0.9;fill:none;" y1="340" y2="331" x1="398" x2="390" />
 <line transform="translate(-28,-31)" style="stroke:rgb(255,0,0);stroke-width:0.9;fill:none;" y1="339" y2="340" x1="386" x2="398" />
 <line transform="translate(-28,-31)" style="stroke:rgb(255,0,0);stroke-width:0.9;fill:none;" y1="331" y2="330" x1="390" x2="379" />
 <line transform="translate(-28,-31)" style="stroke:rgb(255,0,0);stroke-width:0.9;fill:none;" y1="89" y2="99" x1="210" x2="206" />
 <line transform="translate(-28,-31)" style="stroke:rgb(255,0,0);stroke-width:0.9;fill:none;" y1="111" y2="99" x1="210" x2="214" />
 <line transform="translate(-28,-31)" style="stroke:rgb(255,0,0);stroke-width:0.9;fill:none;" y1="99" y2="111" x1="206" x2="210" />
 <line transform="translate(-28,-31)" style="stroke:rgb(255,0,0);stroke-width:0.9;fill:none;" y1="99" y2="89" x1="214" x2="210" />
 <line transform="translate(-28,-31)" style="stroke:rgb(255,0,0);stroke-width:0.9;fill:none;" y1="270" y2="277" x1="1160" x2="1151" />
 <line transform="translate(-28,-31)" style="stroke:rgb(255,0,0);stroke-width:0.9;fill:none;" y1="289" y2="281" x1="1149" x2="1159" />
 <line transform="translate(-28,-31)" style="stroke:rgb(255,0,0);stroke-width:0.9;fill:none;" y1="277" y2="289" x1="1151" x2="1149" />
 <line transform="translate(-28,-31)" style="stroke:rgb(255,0,0);stroke-width:0.9;fill:none;" y1="281" y2="270" x1="1159" x2="1160" />
 <line transform="translate(-28,-31)" style="stroke:rgb(255,0,0);stroke-width:0.9;fill:none;" y1="510" y2="517" x1="443" x2="454" />
 <line transform="translate(-28,-31)" style="stroke:rgb(255,0,0);stroke-width:0.9;fill:none;" y1="517" y2="503" x1="454" x2="454" />
 <line transform="translate(-28,-31)" style="stroke:rgb(255,0,0);stroke-width:0.9;fill:none;" y1="510" y2="503" x1="443" x2="454" />
 <line transform="translate(-28,-31)" style="stroke:rgb(255,0,0);stroke-width:0.9;fill:none;" y1="582" y2="579" x1="660" x2="671" />
 <line transform="translate(-28,-31)" style="stroke:rgb(255,0,0);stroke-width:0.9;fill:none;" y1="569" y2="572" x1="678" x2="666" />
 <line transform="translate(-28,-31)" style="stroke:rgb(255,0,0);stroke-width:0.9;fill:none;" y1="579" y2="569" x1="671" x2="678" />
 <line transform="translate(-28,-31)" style="stroke:rgb(255,0,0);stroke-width:0.9;fill:none;" y1="572" y2="582" x1="666" x2="660" />
 <line transform="translate(-28,-31)" style="stroke:rgb(255,0,0);stroke-width:0.9;fill:none;" y1="570" y2="574" x1="92" x2="104" />
 <line transform="translate(-28,-31)" style="stroke:rgb(255,0,0);stroke-width:0.9;fill:none;" y1="574" y2="561" x1="104" x2="101" />
 <line transform="translate(-28,-31)" style="stroke:rgb(255,0,0);stroke-width:0.9;fill:none;" y1="570" y2="561" x1="92" x2="101" />
 <line transform="translate(-28,-31)" style="stroke:rgb(255,0,0);stroke-width:0.9;fill:none;" y1="550" y2="561" x1="443" x2="451" />
 <line transform="translate(-28,-31)" style="stroke:rgb(255,0,0);stroke-width:0.9;fill:none;" y1="561" y2="549" x1="451" x2="456" />
 <line transform="translate(-28,-31)" style="stroke:rgb(255,0,0);stroke-width:0.9;fill:none;" y1="550" y2="549" x1="443" x2="456" />
 <line transform="translate(-28,-31)" style="stroke:rgb(255,0,0);stroke-width:0.9;fill:none;" y1="475" y2="472" x1="730" x2="741" />
 <line transform="translate(-28,-31)" style="stroke:rgb(255,0,0);stroke-width:0.9;fill:none;" y1="461" y2="465" x1="747" x2="735" />
 <line transform="translate(-28,-31)" style="stroke:rgb(255,0,0);stroke-width:0.9;fill:none;" y1="472" y2="461" x1="741" x2="747" />
 <line transform="translate(-28,-31)" style="stroke:rgb(255,0,0);stroke-width:0.9;fill:none;" y1="465" y2="475" x1="735" x2="730" />
 <line transform="translate(-28,-31)" style="stroke:rgb(255,0,0);stroke-width:0.9;fill:none;" y1="474" y2="484" x1="90" x2="98" />
 <line transform="translate(-28,-31)" style="stroke:rgb(255,0,0);stroke-width:0.9;fill:none;" y1="484" y2="472" x1="98" x2="103" />
 <line transform="translate(-28,-31)" style="stroke:rgb(255,0,0);stroke-width:0.9;fill:none;" y1="474" y2="472" x1="90" x2="103" />
 <line transform="translate(-28,-31)" style="stroke:rgb(255,0,0);stroke-width:0.9;fill:none;" y1="579" y2="588" x1="310" x2="319" />
 <line transform="translate(-28,-31)" style="stroke:rgb(255,0,0);stroke-width:0.9;fill:none;" y1="588" y2="576" x1="319" x2="323" />
 <line transform="translate(-28,-31)" style="stroke:rgb(255,0,0);stroke-width:0.9;fill:none;" y1="579" y2="576" x1="310" x2="323" />
 <rect width="148" x="136" y="31" height="58" transform="translate(-28,-31)" style="stroke:rgb(255,0,0);stroke-width:0.9;fill:rgb(255,255,192);" />
 <text x="210" y="43" transform="translate(-28,-31)" style="fill:rgb(0,0,0);stroke-width:0;font-size:10;font-style:normal;font-weight:700;font-family:Sans Serif;" text-anchor="middle" >bijutsukan</text>
 <line transform="translate(-28,-31)" style="stroke:rgb(255,0,0);stroke-width:0.9;fill:rgb(255,255,192);" y1="45" y2="45" x1="136" x2="283" />
 <line transform="translate(-28,-31)" style="stroke:rgb(255,0,0);stroke-width:0.9;fill:rgb(255,255,192);" y1="52" y2="52" x1="136" x2="283" />
 <text x="141" y="64" transform="translate(-28,-31)" style="fill:rgb(0,0,0);stroke-width:0;font-size:10;font-style:normal;font-weight:400;font-family:Sans Serif;" >+ OnInit() : bool</text>
 <rect width="338" x="41" y="145" height="270" transform="translate(-28,-31)" style="stroke:rgb(255,0,0);stroke-width:0.9;fill:rgb(255,255,192);" />
 <text x="210" y="157" transform="translate(-28,-31)" style="fill:rgb(0,0,0);stroke-width:0;font-size:10;font-style:normal;font-weight:700;font-family:Sans Serif;" text-anchor="middle" >mainFrame</text>
 <line transform="translate(-28,-31)" style="stroke:rgb(255,0,0);stroke-width:0.9;fill:rgb(255,255,192);" y1="159" y2="159" x1="41" x2="378" />
 <text x="46" y="171" transform="translate(-28,-31)" style="fill:rgb(0,0,0);stroke-width:0;font-size:10;font-style:normal;font-weight:400;font-family:Sans Serif;" >- currentEvent : int</text>
 <text x="46" y="185" transform="translate(-28,-31)" style="fill:rgb(0,0,0);stroke-width:0;font-size:10;font-style:normal;font-weight:400;font-family:Sans Serif;" >- dbIsOpen : bool</text>
 <text x="46" y="199" transform="translate(-28,-31)" style="fill:rgb(0,0,0);stroke-width:0;font-size:10;font-style:normal;font-weight:400;font-family:Sans Serif;" >- dbFileString : wxString</text>
 <text x="46" y="213" transform="translate(-28,-31)" style="fill:rgb(0,0,0);stroke-width:0;font-size:10;font-style:normal;font-weight:400;font-family:Sans Serif;" >- dbFileName : wxFileName</text>
 <text x="46" y="227" transform="translate(-28,-31)" style="fill:rgb(0,0,0);stroke-width:0;font-size:10;font-style:normal;font-weight:400;font-family:Sans Serif;" >- myAboutPanel : aboutPanel</text>
 <text x="46" y="241" transform="translate(-28,-31)" style="fill:rgb(0,0,0);stroke-width:0;font-size:10;font-style:normal;font-weight:400;font-family:Sans Serif;" >- menuBar : wxMenuBar</text>
 <text x="46" y="255" transform="translate(-28,-31)" style="fill:rgb(0,0,0);stroke-width:0;font-size:10;font-style:normal;font-weight:400;font-family:Sans Serif;" >- fileMenu : wxMenu</text>
 <text x="46" y="269" transform="translate(-28,-31)" style="fill:rgb(0,0,0);stroke-width:0;font-size:10;font-style:normal;font-weight:400;font-family:Sans Serif;" >- findMenu : wxMenu</text>
 <text x="46" y="283" transform="translate(-28,-31)" style="fill:rgb(0,0,0);stroke-width:0;font-size:10;font-style:normal;font-weight:400;font-family:Sans Serif;" >- findBySubMenu : wxMenu</text>
 <text x="46" y="297" transform="translate(-28,-31)" style="fill:rgb(0,0,0);stroke-width:0;font-size:10;font-style:normal;font-weight:400;font-family:Sans Serif;" >- inputMenu : wxMenu</text>
 <text x="46" y="311" transform="translate(-28,-31)" style="fill:rgb(0,0,0);stroke-width:0;font-size:10;font-style:normal;font-weight:400;font-family:Sans Serif;" >- categoryMenu : wxMenu</text>
 <text x="46" y="325" transform="translate(-28,-31)" style="fill:rgb(0,0,0);stroke-width:0;font-size:10;font-style:normal;font-weight:400;font-family:Sans Serif;" >- optionsMenu : wxMenu</text>
 <line transform="translate(-28,-31)" style="stroke:rgb(255,0,0);stroke-width:0.9;fill:rgb(255,255,192);" y1="327" y2="327" x1="41" x2="378" />
 <text x="46" y="339" transform="translate(-28,-31)" style="fill:rgb(0,0,0);stroke-width:0;font-size:10;font-style:normal;font-weight:400;font-family:Sans Serif;" >+ mainFrame(title : wxString, pos : wxPoint, size : wxSize)</text>
 <text x="46" y="353" transform="translate(-28,-31)" style="fill:rgb(0,0,0);stroke-width:0;font-size:10;font-style:normal;font-weight:400;font-family:Sans Serif;" >+ onQuit(event : wxCommandEvent)</text>
 <text x="46" y="367" transform="translate(-28,-31)" style="fill:rgb(0,0,0);stroke-width:0;font-size:10;font-style:normal;font-weight:400;font-family:Sans Serif;" >+ eventHandler(event : wxCommandEvent)</text>
 <text x="46" y="381" transform="translate(-28,-31)" style="fill:rgb(0,0,0);stroke-width:0;font-size:10;font-style:normal;font-weight:400;font-family:Sans Serif;" >- makeMenu()</text>
 <text x="46" y="395" transform="translate(-28,-31)" style="fill:rgb(0,0,0);stroke-width:0;font-size:10;font-style:normal;font-weight:400;font-family:Sans Serif;" >- deletePanel()</text>
 <rect width="242" x="999" y="341" height="479" transform="translate(-28,-31)" style="stroke:rgb(255,0,0);stroke-width:0.9;fill:rgb(255,255,192);" />
 <text x="1120" y="353" transform="translate(-28,-31)" style="fill:rgb(0,0,0);stroke-width:0;font-size:10;font-style:normal;font-weight:700;font-family:Sans Serif;" text-anchor="middle" >imageObject</text>
 <line transform="translate(-28,-31)" style="stroke:rgb(255,0,0);stroke-width:0.9;fill:rgb(255,255,192);" y1="355" y2="355" x1="999" x2="1240" />
 <text x="1004" y="367" transform="translate(-28,-31)" style="fill:rgb(0,0,0);stroke-width:0;font-size:10;font-style:normal;font-weight:400;font-family:Sans Serif;" >- filePath : wxString</text>
 <text x="1004" y="381" transform="translate(-28,-31)" style="fill:rgb(0,0,0);stroke-width:0;font-size:10;font-style:normal;font-weight:400;font-family:Sans Serif;" >- fileTitle : wxString</text>
 <text x="1004" y="395" transform="translate(-28,-31)" style="fill:rgb(0,0,0);stroke-width:0;font-size:10;font-style:normal;font-weight:400;font-family:Sans Serif;" >- fileDescription : wxString</text>
 <text x="1004" y="409" transform="translate(-28,-31)" style="fill:rgb(0,0,0);stroke-width:0;font-size:10;font-style:normal;font-weight:400;font-family:Sans Serif;" >- fileCategory : wxString</text>
 <text x="1004" y="423" transform="translate(-28,-31)" style="fill:rgb(0,0,0);stroke-width:0;font-size:10;font-style:normal;font-weight:400;font-family:Sans Serif;" >- fileLabels : wxArrayString</text>
 <text x="1004" y="437" transform="translate(-28,-31)" style="fill:rgb(0,0,0);stroke-width:0;font-size:10;font-style:normal;font-weight:400;font-family:Sans Serif;" >- filePersons : wxArrayString</text>
 <text x="1004" y="451" transform="translate(-28,-31)" style="fill:rgb(0,0,0);stroke-width:0;font-size:10;font-style:normal;font-weight:400;font-family:Sans Serif;" >- fileObjects : wxArrayString</text>
 <text x="1004" y="465" transform="translate(-28,-31)" style="fill:rgb(0,0,0);stroke-width:0;font-size:10;font-style:normal;font-weight:400;font-family:Sans Serif;" >- fileLocations : wxArrayString</text>
 <text x="1004" y="479" transform="translate(-28,-31)" style="fill:rgb(0,0,0);stroke-width:0;font-size:10;font-style:normal;font-weight:400;font-family:Sans Serif;" >- filePositions : wxArrayString</text>
 <line transform="translate(-28,-31)" style="stroke:rgb(255,0,0);stroke-width:0.9;fill:rgb(255,255,192);" y1="481" y2="481" x1="999" x2="1240" />
 <text x="1004" y="493" transform="translate(-28,-31)" style="fill:rgb(0,0,0);stroke-width:0;font-size:10;font-style:normal;font-weight:400;font-family:Sans Serif;" >+ imageObject(path : wxString)</text>
 <text x="1004" y="507" transform="translate(-28,-31)" style="fill:rgb(0,0,0);stroke-width:0;font-size:10;font-style:normal;font-weight:400;font-family:Sans Serif;" >+ getFilePath() : wxString</text>
 <text x="1004" y="521" transform="translate(-28,-31)" style="fill:rgb(0,0,0);stroke-width:0;font-size:10;font-style:normal;font-weight:400;font-family:Sans Serif;" >+ getFileTitle() : wxString</text>
 <text x="1004" y="535" transform="translate(-28,-31)" style="fill:rgb(0,0,0);stroke-width:0;font-size:10;font-style:normal;font-weight:400;font-family:Sans Serif;" >+ getFileDescription() : wxString</text>
 <text x="1004" y="549" transform="translate(-28,-31)" style="fill:rgb(0,0,0);stroke-width:0;font-size:10;font-style:normal;font-weight:400;font-family:Sans Serif;" >+ getCategory() : wxString</text>
 <text x="1004" y="563" transform="translate(-28,-31)" style="fill:rgb(0,0,0);stroke-width:0;font-size:10;font-style:normal;font-weight:400;font-family:Sans Serif;" >+ setFilePath(nfilePath : wxString)</text>
 <text x="1004" y="577" transform="translate(-28,-31)" style="fill:rgb(0,0,0);stroke-width:0;font-size:10;font-style:normal;font-weight:400;font-family:Sans Serif;" >+ setFileTitle(nfileTitle : wxString)</text>
 <text x="1004" y="591" transform="translate(-28,-31)" style="fill:rgb(0,0,0);stroke-width:0;font-size:10;font-style:normal;font-weight:400;font-family:Sans Serif;" >+ setFileDescription(nfileDescription : wxString)</text>
 <text x="1004" y="605" transform="translate(-28,-31)" style="fill:rgb(0,0,0);stroke-width:0;font-size:10;font-style:normal;font-weight:400;font-family:Sans Serif;" >+ setFileCategory(nfileCategory : wxString)</text>
 <text x="1004" y="619" transform="translate(-28,-31)" style="fill:rgb(0,0,0);stroke-width:0;font-size:10;font-style:normal;font-weight:400;font-family:Sans Serif;" >+ getFileLabels() : wxArrayString</text>
 <text x="1004" y="633" transform="translate(-28,-31)" style="fill:rgb(0,0,0);stroke-width:0;font-size:10;font-style:normal;font-weight:400;font-family:Sans Serif;" >+ getFilePersons() : wxArrayString</text>
 <text x="1004" y="647" transform="translate(-28,-31)" style="fill:rgb(0,0,0);stroke-width:0;font-size:10;font-style:normal;font-weight:400;font-family:Sans Serif;" >+ getFileObjects() : wxArrayString</text>
 <text x="1004" y="661" transform="translate(-28,-31)" style="fill:rgb(0,0,0);stroke-width:0;font-size:10;font-style:normal;font-weight:400;font-family:Sans Serif;" >+ getFileLocations() : wxArrayString</text>
 <text x="1004" y="675" transform="translate(-28,-31)" style="fill:rgb(0,0,0);stroke-width:0;font-size:10;font-style:normal;font-weight:400;font-family:Sans Serif;" >+ getFilePositions() : wxArrayString</text>
 <text x="1004" y="689" transform="translate(-28,-31)" style="fill:rgb(0,0,0);stroke-width:0;font-size:10;font-style:normal;font-weight:400;font-family:Sans Serif;" >+ addFileLables(nfileLabel : wxString)</text>
 <text x="1004" y="703" transform="translate(-28,-31)" style="fill:rgb(0,0,0);stroke-width:0;font-size:10;font-style:normal;font-weight:400;font-family:Sans Serif;" >+ addFilePersons(nfilePerson : wxString)</text>
 <text x="1004" y="717" transform="translate(-28,-31)" style="fill:rgb(0,0,0);stroke-width:0;font-size:10;font-style:normal;font-weight:400;font-family:Sans Serif;" >+ addFileObjects(nfileObject : wxString)</text>
 <text x="1004" y="731" transform="translate(-28,-31)" style="fill:rgb(0,0,0);stroke-width:0;font-size:10;font-style:normal;font-weight:400;font-family:Sans Serif;" >+ addFileLocations(nfileLocation : wxString)</text>
 <text x="1004" y="745" transform="translate(-28,-31)" style="fill:rgb(0,0,0);stroke-width:0;font-size:10;font-style:normal;font-weight:400;font-family:Sans Serif;" >+ addFilePositions(nfilePosition : wxString)</text>
 <text x="1004" y="759" transform="translate(-28,-31)" style="fill:rgb(0,0,0);stroke-width:0;font-size:10;font-style:normal;font-weight:400;font-family:Sans Serif;" >+ delFileLabels(nfileLabel : wxString)</text>
 <text x="1004" y="773" transform="translate(-28,-31)" style="fill:rgb(0,0,0);stroke-width:0;font-size:10;font-style:normal;font-weight:400;font-family:Sans Serif;" >+ delFilePersons(nfilePerson : wxString)</text>
 <text x="1004" y="787" transform="translate(-28,-31)" style="fill:rgb(0,0,0);stroke-width:0;font-size:10;font-style:normal;font-weight:400;font-family:Sans Serif;" >+ delFileObjects(nfileObject : wxString)</text>
 <text x="1004" y="801" transform="translate(-28,-31)" style="fill:rgb(0,0,0);stroke-width:0;font-size:10;font-style:normal;font-weight:400;font-family:Sans Serif;" >+ delFileLocations(nfileLocation : wxString)</text>
 <text x="1004" y="815" transform="translate(-28,-31)" style="fill:rgb(0,0,0);stroke-width:0;font-size:10;font-style:normal;font-weight:400;font-family:Sans Serif;" >+ delFilePositions(nfilePosition : wxString)</text>
 <rect width="229" x="566" y="185" height="210" transform="translate(-28,-31)" style="stroke:rgb(255,0,0);stroke-width:0.9;fill:rgb(255,255,192);" />
 <text x="680" y="197" transform="translate(-28,-31)" style="fill:rgb(0,0,0);stroke-width:0;font-size:10;font-style:normal;font-weight:700;font-family:Sans Serif;" text-anchor="middle" >mainPanel</text>
 <line transform="translate(-28,-31)" style="stroke:rgb(255,0,0);stroke-width:0.9;fill:rgb(255,255,192);" y1="199" y2="199" x1="566" x2="794" />
 <text x="571" y="211" transform="translate(-28,-31)" style="fill:rgb(0,0,0);stroke-width:0;font-size:10;font-style:normal;font-weight:400;font-family:Sans Serif;" >- mainCaption : wxStaticText</text>
 <text x="571" y="225" transform="translate(-28,-31)" style="fill:rgb(0,0,0);stroke-width:0;font-size:10;font-style:normal;font-weight:400;font-family:Sans Serif;" >- findDescription : wxStaticText</text>
 <text x="571" y="239" transform="translate(-28,-31)" style="fill:rgb(0,0,0);stroke-width:0;font-size:10;font-style:normal;font-weight:400;font-family:Sans Serif;" >- listDescription : wxStaticText</text>
 <text x="571" y="253" transform="translate(-28,-31)" style="fill:rgb(0,0,0);stroke-width:0;font-size:10;font-style:normal;font-weight:400;font-family:Sans Serif;" >- inputDescription : wxStaticText</text>
 <text x="571" y="267" transform="translate(-28,-31)" style="fill:rgb(0,0,0);stroke-width:0;font-size:10;font-style:normal;font-weight:400;font-family:Sans Serif;" >- inputWizard : wxButton</text>
 <text x="571" y="281" transform="translate(-28,-31)" style="fill:rgb(0,0,0);stroke-width:0;font-size:10;font-style:normal;font-weight:400;font-family:Sans Serif;" >- inputPath : wxButton</text>
 <text x="571" y="295" transform="translate(-28,-31)" style="fill:rgb(0,0,0);stroke-width:0;font-size:10;font-style:normal;font-weight:400;font-family:Sans Serif;" >- inputDir : wxButton</text>
 <text x="571" y="309" transform="translate(-28,-31)" style="fill:rgb(0,0,0);stroke-width:0;font-size:10;font-style:normal;font-weight:400;font-family:Sans Serif;" >- fileList : wxButton</text>
 <text x="571" y="323" transform="translate(-28,-31)" style="fill:rgb(0,0,0);stroke-width:0;font-size:10;font-style:normal;font-weight:400;font-family:Sans Serif;" >- labelList : wxButton</text>
 <text x="571" y="337" transform="translate(-28,-31)" style="fill:rgb(0,0,0);stroke-width:0;font-size:10;font-style:normal;font-weight:400;font-family:Sans Serif;" >- personList : wxButton</text>
 <text x="571" y="351" transform="translate(-28,-31)" style="fill:rgb(0,0,0);stroke-width:0;font-size:10;font-style:normal;font-weight:400;font-family:Sans Serif;" >- positionList : wxButton</text>
 <text x="571" y="365" transform="translate(-28,-31)" style="fill:rgb(0,0,0);stroke-width:0;font-size:10;font-style:normal;font-weight:400;font-family:Sans Serif;" >- findBy : wxButton</text>
 <line transform="translate(-28,-31)" style="stroke:rgb(255,0,0);stroke-width:0.9;fill:rgb(255,255,192);" y1="367" y2="367" x1="566" x2="794" />
 <text x="571" y="379" transform="translate(-28,-31)" style="fill:rgb(0,0,0);stroke-width:0;font-size:10;font-style:normal;font-weight:400;font-family:Sans Serif;" >+ mainPanel(parent : wxWindow)</text>
 <text x="571" y="393" transform="translate(-28,-31)" style="fill:rgb(0,0,0);stroke-width:0;font-size:10;font-style:normal;font-weight:400;font-family:Sans Serif;" >+ eventHandler(event : wxCommandEvent)</text>
 <rect width="265" x="558" y="475" height="70" transform="translate(-28,-31)" style="stroke:rgb(255,0,0);stroke-width:0.9;fill:rgb(255,255,192);" />
 <text x="690" y="487" transform="translate(-28,-31)" style="fill:rgb(0,0,0);stroke-width:0;font-size:10;font-style:normal;font-weight:700;font-family:Sans Serif;" text-anchor="middle" >fileListPanel</text>
 <line transform="translate(-28,-31)" style="stroke:rgb(255,0,0);stroke-width:0.9;fill:rgb(255,255,192);" y1="489" y2="489" x1="558" x2="822" />
 <text x="563" y="501" transform="translate(-28,-31)" style="fill:rgb(0,0,0);stroke-width:0;font-size:10;font-style:normal;font-weight:400;font-family:Sans Serif;" >- myFileIdex : fileIndex</text>
 <line transform="translate(-28,-31)" style="stroke:rgb(255,0,0);stroke-width:0.9;fill:rgb(255,255,192);" y1="503" y2="503" x1="558" x2="822" />
 <text x="563" y="515" transform="translate(-28,-31)" style="fill:rgb(0,0,0);stroke-width:0;font-size:10;font-style:normal;font-weight:400;font-family:Sans Serif;" >+ fileListPanel()</text>
 <rect width="167" x="577" y="582" height="56" transform="translate(-28,-31)" style="stroke:rgb(255,0,0);stroke-width:0.9;fill:rgb(255,255,192);" />
 <text x="660" y="594" transform="translate(-28,-31)" style="fill:rgb(0,0,0);stroke-width:0;font-size:10;font-style:normal;font-weight:700;font-family:Sans Serif;" text-anchor="middle" >labeListPanel</text>
 <line transform="translate(-28,-31)" style="stroke:rgb(255,0,0);stroke-width:0.9;fill:rgb(255,255,192);" y1="596" y2="596" x1="577" x2="743" />
 <text x="582" y="608" transform="translate(-28,-31)" style="fill:rgb(0,0,0);stroke-width:0;font-size:10;font-style:normal;font-weight:400;font-family:Sans Serif;" >- myLabelIndex : wxArrayString</text>
 <text x="582" y="622" transform="translate(-28,-31)" style="fill:rgb(0,0,0);stroke-width:0;font-size:10;font-style:normal;font-weight:400;font-family:Sans Serif;" >- labelSelector : wxListCtrl</text>
 <line transform="translate(-28,-31)" style="stroke:rgb(255,0,0);stroke-width:0.9;fill:rgb(255,255,192);" y1="624" y2="624" x1="577" x2="743" />
 <text x="582" y="636" transform="translate(-28,-31)" style="fill:rgb(0,0,0);stroke-width:0;font-size:10;font-style:normal;font-weight:400;font-family:Sans Serif;" >+ labeListPanel()</text>
 <rect width="265" x="178" y="481" height="98" transform="translate(-28,-31)" style="stroke:rgb(255,0,0);stroke-width:0.9;fill:rgb(255,255,192);" />
 <text x="310" y="493" transform="translate(-28,-31)" style="fill:rgb(0,0,0);stroke-width:0;font-size:10;font-style:normal;font-weight:700;font-family:Sans Serif;" text-anchor="middle" >genericListPanel</text>
 <line transform="translate(-28,-31)" style="stroke:rgb(255,0,0);stroke-width:0.9;fill:rgb(255,255,192);" y1="495" y2="495" x1="178" x2="442" />
 <text x="183" y="507" transform="translate(-28,-31)" style="fill:rgb(0,0,0);stroke-width:0;font-size:10;font-style:normal;font-weight:400;font-family:Sans Serif;" >- editButton : wxButton</text>
 <text x="183" y="521" transform="translate(-28,-31)" style="fill:rgb(0,0,0);stroke-width:0;font-size:10;font-style:normal;font-weight:400;font-family:Sans Serif;" >- deleteButton : wxButton</text>
 <text x="183" y="535" transform="translate(-28,-31)" style="fill:rgb(0,0,0);stroke-width:0;font-size:10;font-style:normal;font-weight:400;font-family:Sans Serif;" >- viewButton : wxButton</text>
 <text x="183" y="549" transform="translate(-28,-31)" style="fill:rgb(0,0,0);stroke-width:0;font-size:10;font-style:normal;font-weight:400;font-family:Sans Serif;" >- setMultipleAttributeButton : wxButton</text>
 <line transform="translate(-28,-31)" style="stroke:rgb(255,0,0);stroke-width:0.9;fill:rgb(255,255,192);" y1="551" y2="551" x1="178" x2="442" />
 <text x="183" y="563" transform="translate(-28,-31)" style="fill:rgb(0,0,0);stroke-width:0;font-size:10;font-style:normal;font-weight:400;font-family:Sans Serif;" >+ gridEventHandler(event : wxGridEvent)</text>
 <text x="183" y="577" transform="translate(-28,-31)" style="fill:rgb(0,0,0);stroke-width:0;font-size:10;font-style:normal;font-weight:400;font-family:Sans Serif;" >+ genericEventHandler(event : wxCommandEvent)</text>
 <rect width="165" x="578" y="672" height="56" transform="translate(-28,-31)" style="stroke:rgb(255,0,0);stroke-width:0.9;fill:rgb(255,255,192);" />
 <text x="660" y="684" transform="translate(-28,-31)" style="fill:rgb(0,0,0);stroke-width:0;font-size:10;font-style:normal;font-weight:700;font-family:Sans Serif;" text-anchor="middle" >personListPanel</text>
 <line transform="translate(-28,-31)" style="stroke:rgb(255,0,0);stroke-width:0.9;fill:rgb(255,255,192);" y1="686" y2="686" x1="578" x2="742" />
 <text x="583" y="698" transform="translate(-28,-31)" style="fill:rgb(0,0,0);stroke-width:0;font-size:10;font-style:normal;font-weight:400;font-family:Sans Serif;" >- myPersonList : wxArrayString</text>
 <text x="583" y="712" transform="translate(-28,-31)" style="fill:rgb(0,0,0);stroke-width:0;font-size:10;font-style:normal;font-weight:400;font-family:Sans Serif;" >- personSelector : wxListCtrl</text>
 <line transform="translate(-28,-31)" style="stroke:rgb(255,0,0);stroke-width:0.9;fill:rgb(255,255,192);" y1="714" y2="714" x1="578" x2="742" />
 <text x="583" y="726" transform="translate(-28,-31)" style="fill:rgb(0,0,0);stroke-width:0;font-size:10;font-style:normal;font-weight:400;font-family:Sans Serif;" >+ personListPanel()</text>
 <rect width="355" x="893" y="130" height="140" transform="translate(-28,-31)" style="stroke:rgb(255,0,0);stroke-width:0.9;fill:rgb(255,255,192);" />
 <text x="1070" y="142" transform="translate(-28,-31)" style="fill:rgb(0,0,0);stroke-width:0;font-size:10;font-style:normal;font-weight:700;font-family:Sans Serif;" text-anchor="middle" >fileIndex</text>
 <line transform="translate(-28,-31)" style="stroke:rgb(255,0,0);stroke-width:0.9;fill:rgb(255,255,192);" y1="144" y2="144" x1="893" x2="1247" />
 <text x="898" y="156" transform="translate(-28,-31)" style="fill:rgb(0,0,0);stroke-width:0;font-size:10;font-style:normal;font-weight:400;font-family:Sans Serif;" >- pathIndex : wxArrayString</text>
 <text x="898" y="170" transform="translate(-28,-31)" style="fill:rgb(0,0,0);stroke-width:0;font-size:10;font-style:normal;font-weight:400;font-family:Sans Serif;" >- imageObjectArray : wxArray</text>
 <line transform="translate(-28,-31)" style="stroke:rgb(255,0,0);stroke-width:0.9;fill:rgb(255,255,192);" y1="172" y2="172" x1="893" x2="1247" />
 <text x="898" y="184" transform="translate(-28,-31)" style="fill:rgb(0,0,0);stroke-width:0;font-size:10;font-style:normal;font-weight:400;font-family:Sans Serif;" >+ fileIndex()</text>
 <text x="898" y="198" transform="translate(-28,-31)" style="fill:rgb(0,0,0);stroke-width:0;font-size:10;font-style:normal;font-weight:400;font-family:Sans Serif;" >+ getPathIndex(value : wxString, caseSensitive : bool) : wxArrayString</text>
 <text x="898" y="212" transform="translate(-28,-31)" style="fill:rgb(0,0,0);stroke-width:0;font-size:10;font-style:normal;font-weight:400;font-family:Sans Serif;" >+ addFile(filePath : wxString)</text>
 <text x="898" y="226" transform="translate(-28,-31)" style="fill:rgb(0,0,0);stroke-width:0;font-size:10;font-style:normal;font-weight:400;font-family:Sans Serif;" >+ delFile(filePath : wxString)</text>
 <text x="898" y="240" transform="translate(-28,-31)" style="fill:rgb(0,0,0);stroke-width:0;font-size:10;font-style:normal;font-weight:400;font-family:Sans Serif;" >+ makeImageObject(filePath : wxString)</text>
 <text x="898" y="254" transform="translate(-28,-31)" style="fill:rgb(0,0,0);stroke-width:0;font-size:10;font-style:normal;font-weight:400;font-family:Sans Serif;" >+ findValue(value : wxString, caseSensitive : bool) : int</text>
 <text x="898" y="268" transform="translate(-28,-31)" style="fill:rgb(0,0,0);stroke-width:0;font-size:10;font-style:normal;font-weight:400;font-family:Sans Serif;" >+ getImageObjects() : wxArray</text>
 <rect width="64" x="28" y="556" height="28" transform="translate(-28,-31)" style="stroke:rgb(255,0,0);stroke-width:0.9;fill:rgb(255,255,192);" />
 <text x="60" y="568" transform="translate(-28,-31)" style="fill:rgb(0,0,0);stroke-width:0;font-size:10;font-style:normal;font-weight:700;font-family:Sans Serif;" text-anchor="middle" >gridPanel</text>
 <line transform="translate(-28,-31)" style="stroke:rgb(255,0,0);stroke-width:0.9;fill:rgb(255,255,192);" y1="570" y2="570" x1="28" x2="91" />
 <line transform="translate(-28,-31)" style="stroke:rgb(255,0,0);stroke-width:0.9;fill:rgb(255,255,192);" y1="577" y2="577" x1="28" x2="91" />
 <rect width="125" x="28" y="446" height="28" transform="translate(-28,-31)" style="stroke:rgb(255,0,0);stroke-width:0.9;fill:rgb(255,255,192);" />
 <text x="90" y="458" transform="translate(-28,-31)" style="fill:rgb(0,0,0);stroke-width:0;font-size:10;font-style:normal;font-weight:700;font-family:Sans Serif;" text-anchor="middle" >drawingPanel</text>
 <line transform="translate(-28,-31)" style="stroke:rgb(255,0,0);stroke-width:0.9;fill:rgb(255,255,192);" y1="460" y2="460" x1="28" x2="152" />
 <line transform="translate(-28,-31)" style="stroke:rgb(255,0,0);stroke-width:0.9;fill:rgb(255,255,192);" y1="467" y2="467" x1="28" x2="152" />
 <text x="1200" y="315" transform="translate(-28,-31)" style="fill:rgb(50,50,50);stroke-width:0;font-size:10;font-style:normal;font-weight:400;font-family:Sans Serif;" text-anchor="middle" >Collecting imageObjects</text>
 <text x="940" y="285" transform="translate(-28,-31)" style="fill:rgb(50,50,50);stroke-width:0;font-size:10;font-style:normal;font-weight:400;font-family:Sans Serif;" text-anchor="middle" >+myFileIdex</text>
</svg>
